<mxfile host="Electron" agent="Mozilla/5.0 (Windows NT 10.0; Win64; x64) AppleWebKit/537.36 (KHTML, like Gecko) draw.io/27.0.5 Chrome/134.0.6998.205 Electron/35.3.0 Safari/537.36" version="27.0.5" pages="3">
  <diagram name="Summary" id="3CzmqbLCV3_CqGfgxyp6">
    <mxGraphModel dx="2850" dy="1593" grid="0" gridSize="10" guides="1" tooltips="1" connect="1" arrows="1" fold="1" page="0" pageScale="1" pageWidth="850" pageHeight="1100" math="0" shadow="0">
      <root>
        <mxCell id="0" />
        <mxCell id="1" parent="0" />
        <mxCell id="g64b8pfC4uwdNNqb4Vc2-2" value="Vertical Container" style="swimlane;whiteSpace=wrap;html=1;sketch=1;curveFitting=1;jiggle=2;fontFamily=Architects Daughter;" parent="1" vertex="1">
          <mxGeometry x="-584" y="-84" width="1535" height="723" as="geometry" />
        </mxCell>
        <mxCell id="g64b8pfC4uwdNNqb4Vc2-1" value="" style="rounded=0;whiteSpace=wrap;html=1;sketch=1;curveFitting=1;jiggle=2;" parent="g64b8pfC4uwdNNqb4Vc2-2" vertex="1">
          <mxGeometry x="17" y="44.5" width="543" height="636.5" as="geometry" />
        </mxCell>
        <mxCell id="g64b8pfC4uwdNNqb4Vc2-14" value="" style="group;align=left;" parent="g64b8pfC4uwdNNqb4Vc2-2" vertex="1" connectable="0">
          <mxGeometry x="45" y="150" width="295" height="30" as="geometry" />
        </mxCell>
        <mxCell id="g64b8pfC4uwdNNqb4Vc2-16" value="325" style="text;html=1;align=center;verticalAlign=middle;whiteSpace=wrap;rounded=0;fontFamily=Architects Daughter;fontSize=15;strokeColor=none;sketch=1;curveFitting=1;jiggle=2;container=0;" parent="g64b8pfC4uwdNNqb4Vc2-14" vertex="1">
          <mxGeometry x="150" width="145" height="30" as="geometry" />
        </mxCell>
        <mxCell id="g64b8pfC4uwdNNqb4Vc2-15" value="Department Count" style="text;html=1;align=left;verticalAlign=middle;whiteSpace=wrap;rounded=0;fontFamily=Architects Daughter;fontSize=15;container=0;" parent="g64b8pfC4uwdNNqb4Vc2-14" vertex="1">
          <mxGeometry width="148" height="30" as="geometry" />
        </mxCell>
        <mxCell id="g64b8pfC4uwdNNqb4Vc2-45" value="" style="group;strokeColor=none;" parent="g64b8pfC4uwdNNqb4Vc2-14" vertex="1" connectable="0">
          <mxGeometry y="-45" width="295" height="30" as="geometry" />
        </mxCell>
        <mxCell id="g64b8pfC4uwdNNqb4Vc2-12" value="User Count" style="text;html=1;align=left;verticalAlign=middle;whiteSpace=wrap;rounded=0;fontFamily=Architects Daughter;fontSize=15;" parent="g64b8pfC4uwdNNqb4Vc2-45" vertex="1">
          <mxGeometry width="145.02100840336135" height="30" as="geometry" />
        </mxCell>
        <mxCell id="g64b8pfC4uwdNNqb4Vc2-13" value="325" style="text;html=1;align=center;verticalAlign=middle;whiteSpace=wrap;rounded=0;fontFamily=Architects Daughter;fontSize=15;strokeColor=none;sketch=1;curveFitting=1;jiggle=2;" parent="g64b8pfC4uwdNNqb4Vc2-45" vertex="1">
          <mxGeometry x="149.97899159663865" width="145.02100840336135" height="30" as="geometry" />
        </mxCell>
        <mxCell id="g64b8pfC4uwdNNqb4Vc2-46" value="" style="group;strokeColor=none;" parent="g64b8pfC4uwdNNqb4Vc2-14" vertex="1" connectable="0">
          <mxGeometry x="-1" y="-83" width="296" height="30" as="geometry" />
        </mxCell>
        <mxCell id="g64b8pfC4uwdNNqb4Vc2-7" value="Report Count" style="text;html=1;align=left;verticalAlign=middle;whiteSpace=wrap;rounded=0;fontFamily=Architects Daughter;fontSize=15;" parent="g64b8pfC4uwdNNqb4Vc2-46" vertex="1">
          <mxGeometry width="145.51260504201682" height="30" as="geometry" />
        </mxCell>
        <mxCell id="g64b8pfC4uwdNNqb4Vc2-9" value="325" style="text;html=1;align=center;verticalAlign=middle;whiteSpace=wrap;rounded=0;fontFamily=Architects Daughter;fontSize=15;strokeColor=none;sketch=1;curveFitting=1;jiggle=2;" parent="g64b8pfC4uwdNNqb4Vc2-46" vertex="1">
          <mxGeometry x="150.48739495798318" width="145.51260504201682" height="30" as="geometry" />
        </mxCell>
        <mxCell id="g64b8pfC4uwdNNqb4Vc2-19" value="Datasource List (DB.Schema / File / API only or System too?)" style="swimlane;fontStyle=0;childLayout=stackLayout;horizontal=1;startSize=30;horizontalStack=0;resizeParent=1;resizeParentMax=0;resizeLast=0;collapsible=1;marginBottom=0;whiteSpace=wrap;html=1;fontFamily=Architects Daughter;fontSize=14;sketch=1;curveFitting=1;jiggle=2;" parent="g64b8pfC4uwdNNqb4Vc2-2" vertex="1">
          <mxGeometry x="45" y="239" width="496" height="420" as="geometry" />
        </mxCell>
        <mxCell id="g64b8pfC4uwdNNqb4Vc2-20" value="Item 1" style="text;strokeColor=none;fillColor=none;align=left;verticalAlign=middle;spacingLeft=4;spacingRight=4;overflow=hidden;points=[[0,0.5],[1,0.5]];portConstraint=eastwest;rotatable=0;whiteSpace=wrap;html=1;fontFamily=Architects Daughter;fontSize=14;sketch=1;curveFitting=1;jiggle=2;" parent="g64b8pfC4uwdNNqb4Vc2-19" vertex="1">
          <mxGeometry y="30" width="496" height="30" as="geometry" />
        </mxCell>
        <mxCell id="g64b8pfC4uwdNNqb4Vc2-21" value="Item 2" style="text;strokeColor=none;fillColor=none;align=left;verticalAlign=middle;spacingLeft=4;spacingRight=4;overflow=hidden;points=[[0,0.5],[1,0.5]];portConstraint=eastwest;rotatable=0;whiteSpace=wrap;html=1;fontFamily=Architects Daughter;fontSize=14;sketch=1;curveFitting=1;jiggle=2;" parent="g64b8pfC4uwdNNqb4Vc2-19" vertex="1">
          <mxGeometry y="60" width="496" height="30" as="geometry" />
        </mxCell>
        <mxCell id="g64b8pfC4uwdNNqb4Vc2-22" value="Item 3" style="text;strokeColor=none;fillColor=none;align=left;verticalAlign=middle;spacingLeft=4;spacingRight=4;overflow=hidden;points=[[0,0.5],[1,0.5]];portConstraint=eastwest;rotatable=0;whiteSpace=wrap;html=1;fontFamily=Architects Daughter;fontSize=14;sketch=1;curveFitting=1;jiggle=2;" parent="g64b8pfC4uwdNNqb4Vc2-19" vertex="1">
          <mxGeometry y="90" width="496" height="30" as="geometry" />
        </mxCell>
        <mxCell id="uC9i-q1gUFwZ7HTssRDQ-10" value="Item 4" style="text;strokeColor=none;fillColor=none;align=left;verticalAlign=middle;spacingLeft=4;spacingRight=4;overflow=hidden;points=[[0,0.5],[1,0.5]];portConstraint=eastwest;rotatable=0;whiteSpace=wrap;html=1;fontFamily=Architects Daughter;fontSize=14;sketch=1;curveFitting=1;jiggle=2;" parent="g64b8pfC4uwdNNqb4Vc2-19" vertex="1">
          <mxGeometry y="120" width="496" height="30" as="geometry" />
        </mxCell>
        <mxCell id="uC9i-q1gUFwZ7HTssRDQ-9" value="etc.&amp;nbsp;" style="text;strokeColor=none;fillColor=none;align=left;verticalAlign=middle;spacingLeft=4;spacingRight=4;overflow=hidden;points=[[0,0.5],[1,0.5]];portConstraint=eastwest;rotatable=0;whiteSpace=wrap;html=1;fontFamily=Architects Daughter;fontSize=14;sketch=1;curveFitting=1;jiggle=2;" parent="g64b8pfC4uwdNNqb4Vc2-19" vertex="1">
          <mxGeometry y="150" width="496" height="30" as="geometry" />
        </mxCell>
        <mxCell id="uC9i-q1gUFwZ7HTssRDQ-8" style="text;strokeColor=none;fillColor=none;align=left;verticalAlign=middle;spacingLeft=4;spacingRight=4;overflow=hidden;points=[[0,0.5],[1,0.5]];portConstraint=eastwest;rotatable=0;whiteSpace=wrap;html=1;fontFamily=Architects Daughter;fontSize=14;sketch=1;curveFitting=1;jiggle=2;" parent="g64b8pfC4uwdNNqb4Vc2-19" vertex="1">
          <mxGeometry y="180" width="496" height="30" as="geometry" />
        </mxCell>
        <mxCell id="uC9i-q1gUFwZ7HTssRDQ-7" style="text;strokeColor=none;fillColor=none;align=left;verticalAlign=middle;spacingLeft=4;spacingRight=4;overflow=hidden;points=[[0,0.5],[1,0.5]];portConstraint=eastwest;rotatable=0;whiteSpace=wrap;html=1;fontFamily=Architects Daughter;fontSize=14;sketch=1;curveFitting=1;jiggle=2;" parent="g64b8pfC4uwdNNqb4Vc2-19" vertex="1">
          <mxGeometry y="210" width="496" height="30" as="geometry" />
        </mxCell>
        <mxCell id="uC9i-q1gUFwZ7HTssRDQ-6" style="text;strokeColor=none;fillColor=none;align=left;verticalAlign=middle;spacingLeft=4;spacingRight=4;overflow=hidden;points=[[0,0.5],[1,0.5]];portConstraint=eastwest;rotatable=0;whiteSpace=wrap;html=1;fontFamily=Architects Daughter;fontSize=14;sketch=1;curveFitting=1;jiggle=2;" parent="g64b8pfC4uwdNNqb4Vc2-19" vertex="1">
          <mxGeometry y="240" width="496" height="30" as="geometry" />
        </mxCell>
        <mxCell id="uC9i-q1gUFwZ7HTssRDQ-5" style="text;strokeColor=none;fillColor=none;align=left;verticalAlign=middle;spacingLeft=4;spacingRight=4;overflow=hidden;points=[[0,0.5],[1,0.5]];portConstraint=eastwest;rotatable=0;whiteSpace=wrap;html=1;fontFamily=Architects Daughter;fontSize=14;sketch=1;curveFitting=1;jiggle=2;" parent="g64b8pfC4uwdNNqb4Vc2-19" vertex="1">
          <mxGeometry y="270" width="496" height="30" as="geometry" />
        </mxCell>
        <mxCell id="uC9i-q1gUFwZ7HTssRDQ-4" style="text;strokeColor=none;fillColor=none;align=left;verticalAlign=middle;spacingLeft=4;spacingRight=4;overflow=hidden;points=[[0,0.5],[1,0.5]];portConstraint=eastwest;rotatable=0;whiteSpace=wrap;html=1;fontFamily=Architects Daughter;fontSize=14;sketch=1;curveFitting=1;jiggle=2;" parent="g64b8pfC4uwdNNqb4Vc2-19" vertex="1">
          <mxGeometry y="300" width="496" height="30" as="geometry" />
        </mxCell>
        <mxCell id="uC9i-q1gUFwZ7HTssRDQ-3" style="text;strokeColor=none;fillColor=none;align=left;verticalAlign=middle;spacingLeft=4;spacingRight=4;overflow=hidden;points=[[0,0.5],[1,0.5]];portConstraint=eastwest;rotatable=0;whiteSpace=wrap;html=1;fontFamily=Architects Daughter;fontSize=14;sketch=1;curveFitting=1;jiggle=2;" parent="g64b8pfC4uwdNNqb4Vc2-19" vertex="1">
          <mxGeometry y="330" width="496" height="30" as="geometry" />
        </mxCell>
        <mxCell id="uC9i-q1gUFwZ7HTssRDQ-2" style="text;strokeColor=none;fillColor=none;align=left;verticalAlign=middle;spacingLeft=4;spacingRight=4;overflow=hidden;points=[[0,0.5],[1,0.5]];portConstraint=eastwest;rotatable=0;whiteSpace=wrap;html=1;fontFamily=Architects Daughter;fontSize=14;sketch=1;curveFitting=1;jiggle=2;" parent="g64b8pfC4uwdNNqb4Vc2-19" vertex="1">
          <mxGeometry y="360" width="496" height="30" as="geometry" />
        </mxCell>
        <mxCell id="uC9i-q1gUFwZ7HTssRDQ-1" style="text;strokeColor=none;fillColor=none;align=left;verticalAlign=middle;spacingLeft=4;spacingRight=4;overflow=hidden;points=[[0,0.5],[1,0.5]];portConstraint=eastwest;rotatable=0;whiteSpace=wrap;html=1;fontFamily=Architects Daughter;fontSize=14;sketch=1;curveFitting=1;jiggle=2;" parent="g64b8pfC4uwdNNqb4Vc2-19" vertex="1">
          <mxGeometry y="390" width="496" height="30" as="geometry" />
        </mxCell>
        <mxCell id="g64b8pfC4uwdNNqb4Vc2-71" value="&lt;div style=&quot;&quot;&gt;&lt;span style=&quot;font-size: 16px; font-family: &amp;quot;Architects Daughter&amp;quot;; background-color: transparent; color: light-dark(rgb(0, 0, 0), rgb(255, 255, 255));&quot;&gt;Preamble (Desc, elevator pitch etc.)&lt;br&gt;Usage instructions and remarks&lt;/span&gt;&lt;/div&gt;&lt;div style=&quot;&quot;&gt;&lt;font face=&quot;Architects Daughter&quot;&gt;&lt;span style=&quot;font-size: 16px;&quot;&gt;Action Buttons, links etc&lt;/span&gt;&lt;/font&gt;&lt;/div&gt;&lt;div&gt;&lt;font style=&quot;font-size: 16px;&quot; face=&quot;Architects Daughter&quot;&gt;&lt;br&gt;&lt;/font&gt;&lt;/div&gt;&lt;div&gt;&lt;br&gt;&lt;/div&gt;" style="rounded=0;whiteSpace=wrap;html=1;sketch=1;curveFitting=1;jiggle=2;verticalAlign=top;align=left;" parent="g64b8pfC4uwdNNqb4Vc2-2" vertex="1">
          <mxGeometry x="598" y="44.5" width="925" height="85.5" as="geometry" />
        </mxCell>
        <mxCell id="iX0c3oOgmmm2pGbhtGr2-1" value="Label" style="verticalLabelPosition=bottom;verticalAlign=top;html=1;shape=mxgraph.infographic.cylinder;isoAngle=15;fillColor=#10739E;strokeColor=none;fontStyle=1;fontColor=#10739E;fontSize=12;shadow=0;" parent="g64b8pfC4uwdNNqb4Vc2-2" vertex="1">
          <mxGeometry x="603" y="429" width="40" height="80" as="geometry" />
        </mxCell>
        <mxCell id="iX0c3oOgmmm2pGbhtGr2-2" value="Label" style="verticalLabelPosition=bottom;verticalAlign=top;html=1;shape=mxgraph.infographic.cylinder;isoAngle=15;fillColor=#F2931E;strokeColor=none;fontStyle=1;fontColor=#F2931E;fontSize=12;shadow=0;" parent="g64b8pfC4uwdNNqb4Vc2-2" vertex="1">
          <mxGeometry x="653" y="409" width="40" height="100" as="geometry" />
        </mxCell>
        <mxCell id="iX0c3oOgmmm2pGbhtGr2-3" value="Label" style="verticalLabelPosition=bottom;verticalAlign=top;html=1;shape=mxgraph.infographic.cylinder;isoAngle=15;fillColor=#AE4132;strokeColor=none;fontStyle=1;fontColor=#AE4132;fontSize=12;shadow=0;" parent="g64b8pfC4uwdNNqb4Vc2-2" vertex="1">
          <mxGeometry x="703" y="419" width="40" height="90" as="geometry" />
        </mxCell>
        <mxCell id="iX0c3oOgmmm2pGbhtGr2-4" value="Label" style="verticalLabelPosition=bottom;verticalAlign=top;html=1;shape=mxgraph.infographic.cylinder;isoAngle=15;fillColor=#23445D;strokeColor=none;fontStyle=1;fontColor=#23445D;fontSize=12;shadow=0;" parent="g64b8pfC4uwdNNqb4Vc2-2" vertex="1">
          <mxGeometry x="753" y="459" width="40" height="50" as="geometry" />
        </mxCell>
        <mxCell id="iX0c3oOgmmm2pGbhtGr2-5" value="Label" style="verticalLabelPosition=bottom;verticalAlign=top;html=1;shape=mxgraph.infographic.cylinder;isoAngle=15;fillColor=#12AAB5;strokeColor=none;fontStyle=1;fontColor=#12AAB5;fontSize=12;shadow=0;" parent="g64b8pfC4uwdNNqb4Vc2-2" vertex="1">
          <mxGeometry x="803" y="439" width="40" height="70" as="geometry" />
        </mxCell>
        <mxCell id="iX0c3oOgmmm2pGbhtGr2-6" value="" style="verticalLabelPosition=top;verticalAlign=bottom;html=1;shape=mxgraph.infographic.cylinder;isoAngle=15;fillColor=#CCCCCC;strokeColor=none;fontStyle=1;fontColor=#10739E;fontSize=12;shadow=0;align=left;opacity=70;" parent="g64b8pfC4uwdNNqb4Vc2-2" vertex="1">
          <mxGeometry x="603" y="389" width="40" height="60" as="geometry" />
        </mxCell>
        <mxCell id="iX0c3oOgmmm2pGbhtGr2-7" value="" style="verticalLabelPosition=top;verticalAlign=bottom;html=1;shape=mxgraph.infographic.cylinder;isoAngle=15;fillColor=#CCCCCC;strokeColor=none;fontStyle=1;fontColor=#F2931E;fontSize=12;shadow=0;align=left;opacity=70;" parent="g64b8pfC4uwdNNqb4Vc2-2" vertex="1">
          <mxGeometry x="653" y="389" width="40" height="40" as="geometry" />
        </mxCell>
        <mxCell id="iX0c3oOgmmm2pGbhtGr2-8" value="" style="verticalLabelPosition=top;verticalAlign=bottom;html=1;shape=mxgraph.infographic.cylinder;isoAngle=15;fillColor=#CCCCCC;strokeColor=none;fontStyle=1;fontColor=#AE4132;fontSize=12;shadow=0;align=left;opacity=70;" parent="g64b8pfC4uwdNNqb4Vc2-2" vertex="1">
          <mxGeometry x="703" y="389" width="40" height="50" as="geometry" />
        </mxCell>
        <mxCell id="iX0c3oOgmmm2pGbhtGr2-9" value="" style="verticalLabelPosition=top;verticalAlign=bottom;html=1;shape=mxgraph.infographic.cylinder;isoAngle=15;fillColor=#CCCCCC;strokeColor=none;fontStyle=1;fontColor=#23445D;fontSize=12;shadow=0;align=left;opacity=70;" parent="g64b8pfC4uwdNNqb4Vc2-2" vertex="1">
          <mxGeometry x="753" y="389" width="40" height="90" as="geometry" />
        </mxCell>
        <mxCell id="iX0c3oOgmmm2pGbhtGr2-10" value="" style="verticalLabelPosition=top;verticalAlign=bottom;html=1;shape=mxgraph.infographic.cylinder;isoAngle=15;fillColor=#CCCCCC;strokeColor=none;fontStyle=1;fontColor=#12AAB5;fontSize=12;shadow=0;align=left;opacity=70;" parent="g64b8pfC4uwdNNqb4Vc2-2" vertex="1">
          <mxGeometry x="803" y="389" width="40" height="70" as="geometry" />
        </mxCell>
        <mxCell id="iX0c3oOgmmm2pGbhtGr2-11" value="Label" style="verticalLabelPosition=middle;verticalAlign=bottom;html=1;whiteSpace=wrap;shape=mxgraph.infographic.shadedTriangle;fillColor=#23445D;strokeColor=none;fontSize=10;labelPosition=center;align=center;fontColor=#FFFFFF;fontStyle=1;shadow=0;" parent="g64b8pfC4uwdNNqb4Vc2-2" vertex="1">
          <mxGeometry x="824" y="599" width="80" height="80" as="geometry" />
        </mxCell>
        <mxCell id="iX0c3oOgmmm2pGbhtGr2-12" value="Label" style="verticalLabelPosition=middle;verticalAlign=bottom;html=1;whiteSpace=wrap;shape=mxgraph.infographic.shadedTriangle;fillColor=#12AAB5;strokeColor=none;fontSize=10;labelPosition=center;align=center;fontColor=#FFFFFF;fontStyle=1;shadow=0;" parent="g64b8pfC4uwdNNqb4Vc2-2" vertex="1">
          <mxGeometry x="764" y="579" width="80" height="100" as="geometry" />
        </mxCell>
        <mxCell id="iX0c3oOgmmm2pGbhtGr2-13" value="Label" style="verticalLabelPosition=middle;verticalAlign=bottom;html=1;whiteSpace=wrap;shape=mxgraph.infographic.shadedTriangle;fillColor=#AE4132;strokeColor=none;fontSize=10;labelPosition=center;align=center;fontColor=#FFFFFF;fontStyle=1;shadow=0;" parent="g64b8pfC4uwdNNqb4Vc2-2" vertex="1">
          <mxGeometry x="704" y="539" width="80" height="140" as="geometry" />
        </mxCell>
        <mxCell id="iX0c3oOgmmm2pGbhtGr2-14" value="Label" style="verticalLabelPosition=middle;verticalAlign=bottom;html=1;whiteSpace=wrap;shape=mxgraph.infographic.shadedTriangle;fillColor=#F2931E;strokeColor=none;fontSize=10;labelPosition=center;align=center;fontColor=#FFFFFF;fontStyle=1;shadow=0;" parent="g64b8pfC4uwdNNqb4Vc2-2" vertex="1">
          <mxGeometry x="644" y="549" width="80" height="130" as="geometry" />
        </mxCell>
        <mxCell id="iX0c3oOgmmm2pGbhtGr2-15" value="Label" style="verticalLabelPosition=middle;verticalAlign=bottom;html=1;whiteSpace=wrap;shape=mxgraph.infographic.shadedTriangle;fillColor=#10739E;strokeColor=none;fontSize=10;labelPosition=center;align=center;fontColor=#FFFFFF;fontStyle=1;shadow=0;" parent="g64b8pfC4uwdNNqb4Vc2-2" vertex="1">
          <mxGeometry x="584" y="609" width="80" height="70" as="geometry" />
        </mxCell>
        <mxCell id="iX0c3oOgmmm2pGbhtGr2-16" value="&lt;div style=&quot;&quot;&gt;&lt;font face=&quot;Architects Daughter&quot;&gt;&lt;span style=&quot;font-size: 16px;&quot;&gt;- Usage over time&lt;/span&gt;&lt;/font&gt;&lt;/div&gt;&lt;div style=&quot;&quot;&gt;&lt;font face=&quot;Architects Daughter&quot;&gt;&lt;span style=&quot;font-size: 16px;&quot;&gt;- Scatter (show top x reports)&lt;/span&gt;&lt;/font&gt;&lt;/div&gt;&lt;div style=&quot;&quot;&gt;&lt;font face=&quot;Architects Daughter&quot;&gt;&lt;span style=&quot;font-size: 16px;&quot;&gt;-&amp;nbsp;&lt;/span&gt;&lt;/font&gt;&lt;/div&gt;" style="rounded=0;whiteSpace=wrap;html=1;sketch=1;curveFitting=1;jiggle=2;verticalAlign=top;align=left;" parent="g64b8pfC4uwdNNqb4Vc2-2" vertex="1">
          <mxGeometry x="937" y="189" width="580" height="312.5" as="geometry" />
        </mxCell>
        <mxCell id="iX0c3oOgmmm2pGbhtGr2-18" value="No. Users" style="rounded=0;whiteSpace=wrap;html=1;rotation=-90;" parent="g64b8pfC4uwdNNqb4Vc2-2" vertex="1">
          <mxGeometry x="1059.5" y="344.5" width="120" height="37" as="geometry" />
        </mxCell>
        <mxCell id="iX0c3oOgmmm2pGbhtGr2-19" value="Access Count" style="rounded=0;whiteSpace=wrap;html=1;" parent="g64b8pfC4uwdNNqb4Vc2-2" vertex="1">
          <mxGeometry x="1142" y="425" width="120" height="32" as="geometry" />
        </mxCell>
        <mxCell id="iX0c3oOgmmm2pGbhtGr2-20" value="" style="ellipse;whiteSpace=wrap;html=1;" parent="g64b8pfC4uwdNNqb4Vc2-2" vertex="1">
          <mxGeometry x="1174" y="330" width="24" height="21" as="geometry" />
        </mxCell>
        <mxCell id="iX0c3oOgmmm2pGbhtGr2-21" value="" style="ellipse;whiteSpace=wrap;html=1;" parent="g64b8pfC4uwdNNqb4Vc2-2" vertex="1">
          <mxGeometry x="1205" y="360.5" width="24" height="21" as="geometry" />
        </mxCell>
        <mxCell id="iX0c3oOgmmm2pGbhtGr2-22" value="" style="ellipse;whiteSpace=wrap;html=1;" parent="g64b8pfC4uwdNNqb4Vc2-2" vertex="1">
          <mxGeometry x="1238" y="321" width="24" height="21" as="geometry" />
        </mxCell>
        <mxCell id="iX0c3oOgmmm2pGbhtGr2-23" value="" style="ellipse;whiteSpace=wrap;html=1;" parent="g64b8pfC4uwdNNqb4Vc2-2" vertex="1">
          <mxGeometry x="1155.5" y="385" width="24" height="21" as="geometry" />
        </mxCell>
        <mxCell id="oqS26PZg_StFkG7cCDcP-1" value="" style="sketch=0;pointerEvents=1;shadow=0;dashed=0;html=1;strokeColor=none;labelPosition=center;verticalLabelPosition=bottom;verticalAlign=top;align=center;fillColor=#00188D;shape=mxgraph.mscae.general.graph" parent="g64b8pfC4uwdNNqb4Vc2-2" vertex="1">
          <mxGeometry x="591" y="209" width="247" height="128" as="geometry" />
        </mxCell>
        <mxCell id="oqS26PZg_StFkG7cCDcP-2" value="&lt;div style=&quot;&quot;&gt;&lt;font face=&quot;Architects Daughter&quot;&gt;&lt;span style=&quot;font-size: 16px;&quot;&gt;Activity Min / Max (Filterable)&lt;/span&gt;&lt;/font&gt;&lt;/div&gt;" style="rounded=0;whiteSpace=wrap;html=1;sketch=1;curveFitting=1;jiggle=2;verticalAlign=top;align=left;" parent="g64b8pfC4uwdNNqb4Vc2-2" vertex="1">
          <mxGeometry x="45" y="185" width="494" height="40.5" as="geometry" />
        </mxCell>
        <mxCell id="oqS26PZg_StFkG7cCDcP-3" value="" style="dashed=0;verticalLabelPosition=bottom;verticalAlign=top;align=center;shape=mxgraph.gmdl.slider2;barPos=32.5;strokeColor=#3F51B5;opacity=100;strokeWidth=2;fillColor=#3F51B5;handleSize=10;shadow=0;html=1;" parent="g64b8pfC4uwdNNqb4Vc2-2" vertex="1">
          <mxGeometry x="321" y="200" width="200" height="10" as="geometry" />
        </mxCell>
        <mxCell id="oqS26PZg_StFkG7cCDcP-6" value="&lt;div style=&quot;&quot;&gt;&lt;font face=&quot;Architects Daughter&quot;&gt;&lt;span style=&quot;font-size: 16px;&quot;&gt;months&lt;/span&gt;&lt;/font&gt;&lt;/div&gt;" style="rounded=0;whiteSpace=wrap;html=1;sketch=1;curveFitting=1;jiggle=2;verticalAlign=top;align=left;strokeColor=none;fillColor=none;" parent="g64b8pfC4uwdNNqb4Vc2-2" vertex="1">
          <mxGeometry x="408" y="187" width="73" height="29.5" as="geometry" />
        </mxCell>
        <mxCell id="g64b8pfC4uwdNNqb4Vc2-6" value="&lt;ul style=&quot;margin-left:1.125in;direction:ltr;unicode-bidi:embed;&lt;br/&gt; margin-top:0in;margin-bottom:0in&quot; type=&quot;disc&quot;&gt;&lt;li style=&quot;margin-top:0;margin-bottom:0;vertical-align:middle&quot;&gt;&lt;span style=&quot;font-family:Calibri;font-size:11.0pt&quot;&gt;&lt;font style=&quot;color: rgb(153, 153, 153);&quot;&gt;x What Reports Are Being Used&lt;/font&gt;&lt;/span&gt;&lt;/li&gt;&lt;ul style=&quot;margin-left:.375in;direction:ltr;unicode-bidi:embed;&lt;br/&gt;  margin-top:0in;margin-bottom:0in&quot; type=&quot;square&quot;&gt;&lt;font style=&quot;color: rgb(153, 153, 153);&quot;&gt;&lt;br&gt;  &lt;/font&gt;&lt;li style=&quot;margin-top:0;margin-bottom:0;vertical-align:middle&quot;&gt;&lt;span style=&quot;font-family:Calibri;font-size:11.0pt&quot;&gt;&lt;font style=&quot;color: rgb(153, 153, 153);&quot;&gt;x Who is using the reports&lt;br&gt;      (names, and departments)&lt;/font&gt;&lt;/span&gt;&lt;/li&gt;&lt;font style=&quot;color: rgb(153, 153, 153);&quot;&gt;&lt;br&gt;  &lt;/font&gt;&lt;li style=&quot;margin-top:0;margin-bottom:0;vertical-align:middle&quot;&gt;&lt;span style=&quot;font-family:Calibri;font-size:11.0pt&quot;&gt;&lt;font style=&quot;color: rgb(153, 153, 153);&quot;&gt;x (p) Where does the data for the&lt;br&gt;      report come from&lt;/font&gt;&lt;/span&gt;&lt;/li&gt;&lt;ul style=&quot;margin-left:.375in;direction:ltr;unicode-bidi:embed;&lt;br/&gt;   margin-top:0in;margin-bottom:0in&quot; type=&quot;disc&quot;&gt;&lt;br&gt;   &lt;li style=&quot;margin-top:0;margin-bottom:0;vertical-align:middle&quot;&gt;&lt;span style=&quot;font-family:Calibri;font-size:11.0pt&quot;&gt;Original Source (Lineage)&lt;/span&gt;&lt;/li&gt;&lt;/ul&gt;&lt;br&gt;  &lt;li style=&quot;margin-top:0;margin-bottom:0;vertical-align:middle&quot;&gt;&lt;span style=&quot;font-family:Calibri;font-size:11.0pt&quot;&gt;&lt;font style=&quot;color: rgb(153, 153, 153);&quot;&gt;x (p) Where are the reports&lt;/font&gt;&lt;/span&gt;&lt;/li&gt;&lt;br&gt;  &lt;li style=&quot;margin-top:0;margin-bottom:0;vertical-align:middle&quot;&gt;&lt;span style=&quot;font-family:Calibri;font-size:11.0pt&quot;&gt;&lt;font style=&quot;color: rgb(153, 153, 153);&quot;&gt;&amp;nbsp;x What frequency&lt;/font&gt;&lt;/span&gt;&lt;/li&gt;&lt;br&gt;  &lt;li style=&quot;margin-top:0;margin-bottom:0;vertical-align:middle&quot;&gt;&lt;span style=&quot;font-family:Calibri;font-size:11.0pt&quot;&gt;What is the report for (What&lt;br&gt;      is the value of the report)&lt;/span&gt;&lt;/li&gt;&lt;/ul&gt;&lt;/ul&gt;" style="rounded=0;whiteSpace=wrap;html=1;" parent="1" vertex="1">
          <mxGeometry x="-584" y="668" width="877" height="409" as="geometry" />
        </mxCell>
        <mxCell id="mrEwXdMbGE-e4uStIHI7-1" value="Screen Resolution Target: 1920x1080" style="rounded=0;whiteSpace=wrap;html=1;" parent="1" vertex="1">
          <mxGeometry x="528" y="781" width="120" height="60" as="geometry" />
        </mxCell>
      </root>
    </mxGraphModel>
  </diagram>
  <diagram name="Report Detail" id="ToW62TUmlWd--ElXx7Vf">
    <mxGraphModel dx="2868" dy="1609" grid="0" gridSize="10" guides="1" tooltips="1" connect="1" arrows="1" fold="1" page="0" pageScale="1" pageWidth="850" pageHeight="1100" math="0" shadow="0">
      <root>
        <mxCell id="9nyhaM-fOjj10Sf_9-sc-0" />
        <mxCell id="9nyhaM-fOjj10Sf_9-sc-1" parent="9nyhaM-fOjj10Sf_9-sc-0" />
        <mxCell id="9nyhaM-fOjj10Sf_9-sc-2" value="Vertical Container" style="swimlane;whiteSpace=wrap;html=1;sketch=1;curveFitting=1;jiggle=2;fontFamily=Architects Daughter;" vertex="1" parent="9nyhaM-fOjj10Sf_9-sc-1">
          <mxGeometry x="-584" y="-84" width="1535" height="723" as="geometry" />
        </mxCell>
        <mxCell id="QPCRG1O05miaiuswWdQy-0" value="Report List" style="shape=table;startSize=30;container=1;collapsible=0;childLayout=tableLayout;strokeColor=default;fontSize=16;sketch=1;curveFitting=1;jiggle=2;fontFamily=Architects Daughter;" vertex="1" parent="9nyhaM-fOjj10Sf_9-sc-2">
          <mxGeometry x="34" y="46" width="649" height="630" as="geometry" />
        </mxCell>
        <mxCell id="QPCRG1O05miaiuswWdQy-1" value="" style="shape=tableRow;horizontal=0;startSize=0;swimlaneHead=0;swimlaneBody=0;strokeColor=inherit;top=0;left=0;bottom=0;right=0;collapsible=0;dropTarget=0;fillColor=none;points=[[0,0.5],[1,0.5]];portConstraint=eastwest;fontSize=16;" vertex="1" parent="QPCRG1O05miaiuswWdQy-0">
          <mxGeometry y="30" width="649" height="40" as="geometry" />
        </mxCell>
        <mxCell id="QPCRG1O05miaiuswWdQy-2" value="Report Name" style="shape=partialRectangle;html=1;whiteSpace=wrap;connectable=0;strokeColor=inherit;overflow=hidden;fillColor=none;top=0;left=0;bottom=0;right=0;pointerEvents=1;fontSize=16;" vertex="1" parent="QPCRG1O05miaiuswWdQy-1">
          <mxGeometry width="268" height="40" as="geometry">
            <mxRectangle width="268" height="40" as="alternateBounds" />
          </mxGeometry>
        </mxCell>
        <mxCell id="QPCRG1O05miaiuswWdQy-3" value="Dept Count" style="shape=partialRectangle;html=1;whiteSpace=wrap;connectable=0;strokeColor=inherit;overflow=hidden;fillColor=none;top=0;left=0;bottom=0;right=0;pointerEvents=1;fontSize=16;" vertex="1" parent="QPCRG1O05miaiuswWdQy-1">
          <mxGeometry x="268" width="110" height="40" as="geometry">
            <mxRectangle width="110" height="40" as="alternateBounds" />
          </mxGeometry>
        </mxCell>
        <mxCell id="QPCRG1O05miaiuswWdQy-4" value="User Count" style="shape=partialRectangle;html=1;whiteSpace=wrap;connectable=0;strokeColor=inherit;overflow=hidden;fillColor=none;top=0;left=0;bottom=0;right=0;pointerEvents=1;fontSize=16;" vertex="1" parent="QPCRG1O05miaiuswWdQy-1">
          <mxGeometry x="378" width="103" height="40" as="geometry">
            <mxRectangle width="103" height="40" as="alternateBounds" />
          </mxGeometry>
        </mxCell>
        <mxCell id="QPCRG1O05miaiuswWdQy-14" value="Last Accessed" style="shape=partialRectangle;html=1;whiteSpace=wrap;connectable=0;strokeColor=inherit;overflow=hidden;fillColor=none;top=0;left=0;bottom=0;right=0;pointerEvents=1;fontSize=16;" vertex="1" parent="QPCRG1O05miaiuswWdQy-1">
          <mxGeometry x="481" width="168" height="40" as="geometry">
            <mxRectangle width="168" height="40" as="alternateBounds" />
          </mxGeometry>
        </mxCell>
        <mxCell id="QPCRG1O05miaiuswWdQy-5" value="" style="shape=tableRow;horizontal=0;startSize=0;swimlaneHead=0;swimlaneBody=0;strokeColor=inherit;top=0;left=0;bottom=0;right=0;collapsible=0;dropTarget=0;fillColor=none;points=[[0,0.5],[1,0.5]];portConstraint=eastwest;fontSize=16;" vertex="1" parent="QPCRG1O05miaiuswWdQy-0">
          <mxGeometry y="70" width="649" height="40" as="geometry" />
        </mxCell>
        <mxCell id="QPCRG1O05miaiuswWdQy-6" value="" style="shape=partialRectangle;html=1;whiteSpace=wrap;connectable=0;strokeColor=inherit;overflow=hidden;fillColor=none;top=0;left=0;bottom=0;right=0;pointerEvents=1;fontSize=16;" vertex="1" parent="QPCRG1O05miaiuswWdQy-5">
          <mxGeometry width="268" height="40" as="geometry">
            <mxRectangle width="268" height="40" as="alternateBounds" />
          </mxGeometry>
        </mxCell>
        <mxCell id="QPCRG1O05miaiuswWdQy-7" value="" style="shape=partialRectangle;html=1;whiteSpace=wrap;connectable=0;strokeColor=inherit;overflow=hidden;fillColor=none;top=0;left=0;bottom=0;right=0;pointerEvents=1;fontSize=16;" vertex="1" parent="QPCRG1O05miaiuswWdQy-5">
          <mxGeometry x="268" width="110" height="40" as="geometry">
            <mxRectangle width="110" height="40" as="alternateBounds" />
          </mxGeometry>
        </mxCell>
        <mxCell id="QPCRG1O05miaiuswWdQy-8" value="" style="shape=partialRectangle;html=1;whiteSpace=wrap;connectable=0;strokeColor=inherit;overflow=hidden;fillColor=none;top=0;left=0;bottom=0;right=0;pointerEvents=1;fontSize=16;" vertex="1" parent="QPCRG1O05miaiuswWdQy-5">
          <mxGeometry x="378" width="103" height="40" as="geometry">
            <mxRectangle width="103" height="40" as="alternateBounds" />
          </mxGeometry>
        </mxCell>
        <mxCell id="QPCRG1O05miaiuswWdQy-15" style="shape=partialRectangle;html=1;whiteSpace=wrap;connectable=0;strokeColor=inherit;overflow=hidden;fillColor=none;top=0;left=0;bottom=0;right=0;pointerEvents=1;fontSize=16;" vertex="1" parent="QPCRG1O05miaiuswWdQy-5">
          <mxGeometry x="481" width="168" height="40" as="geometry">
            <mxRectangle width="168" height="40" as="alternateBounds" />
          </mxGeometry>
        </mxCell>
        <mxCell id="QPCRG1O05miaiuswWdQy-9" value="" style="shape=tableRow;horizontal=0;startSize=0;swimlaneHead=0;swimlaneBody=0;strokeColor=inherit;top=0;left=0;bottom=0;right=0;collapsible=0;dropTarget=0;fillColor=none;points=[[0,0.5],[1,0.5]];portConstraint=eastwest;fontSize=16;" vertex="1" parent="QPCRG1O05miaiuswWdQy-0">
          <mxGeometry y="110" width="649" height="40" as="geometry" />
        </mxCell>
        <mxCell id="QPCRG1O05miaiuswWdQy-10" value="" style="shape=partialRectangle;html=1;whiteSpace=wrap;connectable=0;strokeColor=inherit;overflow=hidden;fillColor=none;top=0;left=0;bottom=0;right=0;pointerEvents=1;fontSize=16;" vertex="1" parent="QPCRG1O05miaiuswWdQy-9">
          <mxGeometry width="268" height="40" as="geometry">
            <mxRectangle width="268" height="40" as="alternateBounds" />
          </mxGeometry>
        </mxCell>
        <mxCell id="QPCRG1O05miaiuswWdQy-11" value="" style="shape=partialRectangle;html=1;whiteSpace=wrap;connectable=0;strokeColor=inherit;overflow=hidden;fillColor=none;top=0;left=0;bottom=0;right=0;pointerEvents=1;fontSize=16;" vertex="1" parent="QPCRG1O05miaiuswWdQy-9">
          <mxGeometry x="268" width="110" height="40" as="geometry">
            <mxRectangle width="110" height="40" as="alternateBounds" />
          </mxGeometry>
        </mxCell>
        <mxCell id="QPCRG1O05miaiuswWdQy-12" value="" style="shape=partialRectangle;html=1;whiteSpace=wrap;connectable=0;strokeColor=inherit;overflow=hidden;fillColor=none;top=0;left=0;bottom=0;right=0;pointerEvents=1;fontSize=16;" vertex="1" parent="QPCRG1O05miaiuswWdQy-9">
          <mxGeometry x="378" width="103" height="40" as="geometry">
            <mxRectangle width="103" height="40" as="alternateBounds" />
          </mxGeometry>
        </mxCell>
        <mxCell id="QPCRG1O05miaiuswWdQy-16" style="shape=partialRectangle;html=1;whiteSpace=wrap;connectable=0;strokeColor=inherit;overflow=hidden;fillColor=none;top=0;left=0;bottom=0;right=0;pointerEvents=1;fontSize=16;" vertex="1" parent="QPCRG1O05miaiuswWdQy-9">
          <mxGeometry x="481" width="168" height="40" as="geometry">
            <mxRectangle width="168" height="40" as="alternateBounds" />
          </mxGeometry>
        </mxCell>
        <mxCell id="QPCRG1O05miaiuswWdQy-72" style="shape=tableRow;horizontal=0;startSize=0;swimlaneHead=0;swimlaneBody=0;strokeColor=inherit;top=0;left=0;bottom=0;right=0;collapsible=0;dropTarget=0;fillColor=none;points=[[0,0.5],[1,0.5]];portConstraint=eastwest;fontSize=16;" vertex="1" parent="QPCRG1O05miaiuswWdQy-0">
          <mxGeometry y="150" width="649" height="40" as="geometry" />
        </mxCell>
        <mxCell id="QPCRG1O05miaiuswWdQy-73" style="shape=partialRectangle;html=1;whiteSpace=wrap;connectable=0;strokeColor=inherit;overflow=hidden;fillColor=none;top=0;left=0;bottom=0;right=0;pointerEvents=1;fontSize=16;" vertex="1" parent="QPCRG1O05miaiuswWdQy-72">
          <mxGeometry width="268" height="40" as="geometry">
            <mxRectangle width="268" height="40" as="alternateBounds" />
          </mxGeometry>
        </mxCell>
        <mxCell id="QPCRG1O05miaiuswWdQy-74" style="shape=partialRectangle;html=1;whiteSpace=wrap;connectable=0;strokeColor=inherit;overflow=hidden;fillColor=none;top=0;left=0;bottom=0;right=0;pointerEvents=1;fontSize=16;" vertex="1" parent="QPCRG1O05miaiuswWdQy-72">
          <mxGeometry x="268" width="110" height="40" as="geometry">
            <mxRectangle width="110" height="40" as="alternateBounds" />
          </mxGeometry>
        </mxCell>
        <mxCell id="QPCRG1O05miaiuswWdQy-75" style="shape=partialRectangle;html=1;whiteSpace=wrap;connectable=0;strokeColor=inherit;overflow=hidden;fillColor=none;top=0;left=0;bottom=0;right=0;pointerEvents=1;fontSize=16;" vertex="1" parent="QPCRG1O05miaiuswWdQy-72">
          <mxGeometry x="378" width="103" height="40" as="geometry">
            <mxRectangle width="103" height="40" as="alternateBounds" />
          </mxGeometry>
        </mxCell>
        <mxCell id="QPCRG1O05miaiuswWdQy-76" style="shape=partialRectangle;html=1;whiteSpace=wrap;connectable=0;strokeColor=inherit;overflow=hidden;fillColor=none;top=0;left=0;bottom=0;right=0;pointerEvents=1;fontSize=16;" vertex="1" parent="QPCRG1O05miaiuswWdQy-72">
          <mxGeometry x="481" width="168" height="40" as="geometry">
            <mxRectangle width="168" height="40" as="alternateBounds" />
          </mxGeometry>
        </mxCell>
        <mxCell id="QPCRG1O05miaiuswWdQy-67" style="shape=tableRow;horizontal=0;startSize=0;swimlaneHead=0;swimlaneBody=0;strokeColor=inherit;top=0;left=0;bottom=0;right=0;collapsible=0;dropTarget=0;fillColor=none;points=[[0,0.5],[1,0.5]];portConstraint=eastwest;fontSize=16;" vertex="1" parent="QPCRG1O05miaiuswWdQy-0">
          <mxGeometry y="190" width="649" height="40" as="geometry" />
        </mxCell>
        <mxCell id="QPCRG1O05miaiuswWdQy-68" style="shape=partialRectangle;html=1;whiteSpace=wrap;connectable=0;strokeColor=inherit;overflow=hidden;fillColor=none;top=0;left=0;bottom=0;right=0;pointerEvents=1;fontSize=16;" vertex="1" parent="QPCRG1O05miaiuswWdQy-67">
          <mxGeometry width="268" height="40" as="geometry">
            <mxRectangle width="268" height="40" as="alternateBounds" />
          </mxGeometry>
        </mxCell>
        <mxCell id="QPCRG1O05miaiuswWdQy-69" style="shape=partialRectangle;html=1;whiteSpace=wrap;connectable=0;strokeColor=inherit;overflow=hidden;fillColor=none;top=0;left=0;bottom=0;right=0;pointerEvents=1;fontSize=16;" vertex="1" parent="QPCRG1O05miaiuswWdQy-67">
          <mxGeometry x="268" width="110" height="40" as="geometry">
            <mxRectangle width="110" height="40" as="alternateBounds" />
          </mxGeometry>
        </mxCell>
        <mxCell id="QPCRG1O05miaiuswWdQy-70" style="shape=partialRectangle;html=1;whiteSpace=wrap;connectable=0;strokeColor=inherit;overflow=hidden;fillColor=none;top=0;left=0;bottom=0;right=0;pointerEvents=1;fontSize=16;" vertex="1" parent="QPCRG1O05miaiuswWdQy-67">
          <mxGeometry x="378" width="103" height="40" as="geometry">
            <mxRectangle width="103" height="40" as="alternateBounds" />
          </mxGeometry>
        </mxCell>
        <mxCell id="QPCRG1O05miaiuswWdQy-71" style="shape=partialRectangle;html=1;whiteSpace=wrap;connectable=0;strokeColor=inherit;overflow=hidden;fillColor=none;top=0;left=0;bottom=0;right=0;pointerEvents=1;fontSize=16;" vertex="1" parent="QPCRG1O05miaiuswWdQy-67">
          <mxGeometry x="481" width="168" height="40" as="geometry">
            <mxRectangle width="168" height="40" as="alternateBounds" />
          </mxGeometry>
        </mxCell>
        <mxCell id="QPCRG1O05miaiuswWdQy-62" style="shape=tableRow;horizontal=0;startSize=0;swimlaneHead=0;swimlaneBody=0;strokeColor=inherit;top=0;left=0;bottom=0;right=0;collapsible=0;dropTarget=0;fillColor=none;points=[[0,0.5],[1,0.5]];portConstraint=eastwest;fontSize=16;" vertex="1" parent="QPCRG1O05miaiuswWdQy-0">
          <mxGeometry y="230" width="649" height="40" as="geometry" />
        </mxCell>
        <mxCell id="QPCRG1O05miaiuswWdQy-63" style="shape=partialRectangle;html=1;whiteSpace=wrap;connectable=0;strokeColor=inherit;overflow=hidden;fillColor=none;top=0;left=0;bottom=0;right=0;pointerEvents=1;fontSize=16;" vertex="1" parent="QPCRG1O05miaiuswWdQy-62">
          <mxGeometry width="268" height="40" as="geometry">
            <mxRectangle width="268" height="40" as="alternateBounds" />
          </mxGeometry>
        </mxCell>
        <mxCell id="QPCRG1O05miaiuswWdQy-64" style="shape=partialRectangle;html=1;whiteSpace=wrap;connectable=0;strokeColor=inherit;overflow=hidden;fillColor=none;top=0;left=0;bottom=0;right=0;pointerEvents=1;fontSize=16;" vertex="1" parent="QPCRG1O05miaiuswWdQy-62">
          <mxGeometry x="268" width="110" height="40" as="geometry">
            <mxRectangle width="110" height="40" as="alternateBounds" />
          </mxGeometry>
        </mxCell>
        <mxCell id="QPCRG1O05miaiuswWdQy-65" style="shape=partialRectangle;html=1;whiteSpace=wrap;connectable=0;strokeColor=inherit;overflow=hidden;fillColor=none;top=0;left=0;bottom=0;right=0;pointerEvents=1;fontSize=16;" vertex="1" parent="QPCRG1O05miaiuswWdQy-62">
          <mxGeometry x="378" width="103" height="40" as="geometry">
            <mxRectangle width="103" height="40" as="alternateBounds" />
          </mxGeometry>
        </mxCell>
        <mxCell id="QPCRG1O05miaiuswWdQy-66" style="shape=partialRectangle;html=1;whiteSpace=wrap;connectable=0;strokeColor=inherit;overflow=hidden;fillColor=none;top=0;left=0;bottom=0;right=0;pointerEvents=1;fontSize=16;" vertex="1" parent="QPCRG1O05miaiuswWdQy-62">
          <mxGeometry x="481" width="168" height="40" as="geometry">
            <mxRectangle width="168" height="40" as="alternateBounds" />
          </mxGeometry>
        </mxCell>
        <mxCell id="QPCRG1O05miaiuswWdQy-57" style="shape=tableRow;horizontal=0;startSize=0;swimlaneHead=0;swimlaneBody=0;strokeColor=inherit;top=0;left=0;bottom=0;right=0;collapsible=0;dropTarget=0;fillColor=none;points=[[0,0.5],[1,0.5]];portConstraint=eastwest;fontSize=16;" vertex="1" parent="QPCRG1O05miaiuswWdQy-0">
          <mxGeometry y="270" width="649" height="40" as="geometry" />
        </mxCell>
        <mxCell id="QPCRG1O05miaiuswWdQy-58" style="shape=partialRectangle;html=1;whiteSpace=wrap;connectable=0;strokeColor=inherit;overflow=hidden;fillColor=none;top=0;left=0;bottom=0;right=0;pointerEvents=1;fontSize=16;" vertex="1" parent="QPCRG1O05miaiuswWdQy-57">
          <mxGeometry width="268" height="40" as="geometry">
            <mxRectangle width="268" height="40" as="alternateBounds" />
          </mxGeometry>
        </mxCell>
        <mxCell id="QPCRG1O05miaiuswWdQy-59" style="shape=partialRectangle;html=1;whiteSpace=wrap;connectable=0;strokeColor=inherit;overflow=hidden;fillColor=none;top=0;left=0;bottom=0;right=0;pointerEvents=1;fontSize=16;" vertex="1" parent="QPCRG1O05miaiuswWdQy-57">
          <mxGeometry x="268" width="110" height="40" as="geometry">
            <mxRectangle width="110" height="40" as="alternateBounds" />
          </mxGeometry>
        </mxCell>
        <mxCell id="QPCRG1O05miaiuswWdQy-60" style="shape=partialRectangle;html=1;whiteSpace=wrap;connectable=0;strokeColor=inherit;overflow=hidden;fillColor=none;top=0;left=0;bottom=0;right=0;pointerEvents=1;fontSize=16;" vertex="1" parent="QPCRG1O05miaiuswWdQy-57">
          <mxGeometry x="378" width="103" height="40" as="geometry">
            <mxRectangle width="103" height="40" as="alternateBounds" />
          </mxGeometry>
        </mxCell>
        <mxCell id="QPCRG1O05miaiuswWdQy-61" style="shape=partialRectangle;html=1;whiteSpace=wrap;connectable=0;strokeColor=inherit;overflow=hidden;fillColor=none;top=0;left=0;bottom=0;right=0;pointerEvents=1;fontSize=16;" vertex="1" parent="QPCRG1O05miaiuswWdQy-57">
          <mxGeometry x="481" width="168" height="40" as="geometry">
            <mxRectangle width="168" height="40" as="alternateBounds" />
          </mxGeometry>
        </mxCell>
        <mxCell id="QPCRG1O05miaiuswWdQy-52" style="shape=tableRow;horizontal=0;startSize=0;swimlaneHead=0;swimlaneBody=0;strokeColor=inherit;top=0;left=0;bottom=0;right=0;collapsible=0;dropTarget=0;fillColor=none;points=[[0,0.5],[1,0.5]];portConstraint=eastwest;fontSize=16;" vertex="1" parent="QPCRG1O05miaiuswWdQy-0">
          <mxGeometry y="310" width="649" height="40" as="geometry" />
        </mxCell>
        <mxCell id="QPCRG1O05miaiuswWdQy-53" style="shape=partialRectangle;html=1;whiteSpace=wrap;connectable=0;strokeColor=inherit;overflow=hidden;fillColor=none;top=0;left=0;bottom=0;right=0;pointerEvents=1;fontSize=16;" vertex="1" parent="QPCRG1O05miaiuswWdQy-52">
          <mxGeometry width="268" height="40" as="geometry">
            <mxRectangle width="268" height="40" as="alternateBounds" />
          </mxGeometry>
        </mxCell>
        <mxCell id="QPCRG1O05miaiuswWdQy-54" style="shape=partialRectangle;html=1;whiteSpace=wrap;connectable=0;strokeColor=inherit;overflow=hidden;fillColor=none;top=0;left=0;bottom=0;right=0;pointerEvents=1;fontSize=16;" vertex="1" parent="QPCRG1O05miaiuswWdQy-52">
          <mxGeometry x="268" width="110" height="40" as="geometry">
            <mxRectangle width="110" height="40" as="alternateBounds" />
          </mxGeometry>
        </mxCell>
        <mxCell id="QPCRG1O05miaiuswWdQy-55" style="shape=partialRectangle;html=1;whiteSpace=wrap;connectable=0;strokeColor=inherit;overflow=hidden;fillColor=none;top=0;left=0;bottom=0;right=0;pointerEvents=1;fontSize=16;" vertex="1" parent="QPCRG1O05miaiuswWdQy-52">
          <mxGeometry x="378" width="103" height="40" as="geometry">
            <mxRectangle width="103" height="40" as="alternateBounds" />
          </mxGeometry>
        </mxCell>
        <mxCell id="QPCRG1O05miaiuswWdQy-56" style="shape=partialRectangle;html=1;whiteSpace=wrap;connectable=0;strokeColor=inherit;overflow=hidden;fillColor=none;top=0;left=0;bottom=0;right=0;pointerEvents=1;fontSize=16;" vertex="1" parent="QPCRG1O05miaiuswWdQy-52">
          <mxGeometry x="481" width="168" height="40" as="geometry">
            <mxRectangle width="168" height="40" as="alternateBounds" />
          </mxGeometry>
        </mxCell>
        <mxCell id="QPCRG1O05miaiuswWdQy-47" style="shape=tableRow;horizontal=0;startSize=0;swimlaneHead=0;swimlaneBody=0;strokeColor=inherit;top=0;left=0;bottom=0;right=0;collapsible=0;dropTarget=0;fillColor=none;points=[[0,0.5],[1,0.5]];portConstraint=eastwest;fontSize=16;" vertex="1" parent="QPCRG1O05miaiuswWdQy-0">
          <mxGeometry y="350" width="649" height="40" as="geometry" />
        </mxCell>
        <mxCell id="QPCRG1O05miaiuswWdQy-48" style="shape=partialRectangle;html=1;whiteSpace=wrap;connectable=0;strokeColor=inherit;overflow=hidden;fillColor=none;top=0;left=0;bottom=0;right=0;pointerEvents=1;fontSize=16;" vertex="1" parent="QPCRG1O05miaiuswWdQy-47">
          <mxGeometry width="268" height="40" as="geometry">
            <mxRectangle width="268" height="40" as="alternateBounds" />
          </mxGeometry>
        </mxCell>
        <mxCell id="QPCRG1O05miaiuswWdQy-49" style="shape=partialRectangle;html=1;whiteSpace=wrap;connectable=0;strokeColor=inherit;overflow=hidden;fillColor=none;top=0;left=0;bottom=0;right=0;pointerEvents=1;fontSize=16;" vertex="1" parent="QPCRG1O05miaiuswWdQy-47">
          <mxGeometry x="268" width="110" height="40" as="geometry">
            <mxRectangle width="110" height="40" as="alternateBounds" />
          </mxGeometry>
        </mxCell>
        <mxCell id="QPCRG1O05miaiuswWdQy-50" style="shape=partialRectangle;html=1;whiteSpace=wrap;connectable=0;strokeColor=inherit;overflow=hidden;fillColor=none;top=0;left=0;bottom=0;right=0;pointerEvents=1;fontSize=16;" vertex="1" parent="QPCRG1O05miaiuswWdQy-47">
          <mxGeometry x="378" width="103" height="40" as="geometry">
            <mxRectangle width="103" height="40" as="alternateBounds" />
          </mxGeometry>
        </mxCell>
        <mxCell id="QPCRG1O05miaiuswWdQy-51" style="shape=partialRectangle;html=1;whiteSpace=wrap;connectable=0;strokeColor=inherit;overflow=hidden;fillColor=none;top=0;left=0;bottom=0;right=0;pointerEvents=1;fontSize=16;" vertex="1" parent="QPCRG1O05miaiuswWdQy-47">
          <mxGeometry x="481" width="168" height="40" as="geometry">
            <mxRectangle width="168" height="40" as="alternateBounds" />
          </mxGeometry>
        </mxCell>
        <mxCell id="QPCRG1O05miaiuswWdQy-42" style="shape=tableRow;horizontal=0;startSize=0;swimlaneHead=0;swimlaneBody=0;strokeColor=inherit;top=0;left=0;bottom=0;right=0;collapsible=0;dropTarget=0;fillColor=none;points=[[0,0.5],[1,0.5]];portConstraint=eastwest;fontSize=16;" vertex="1" parent="QPCRG1O05miaiuswWdQy-0">
          <mxGeometry y="390" width="649" height="40" as="geometry" />
        </mxCell>
        <mxCell id="QPCRG1O05miaiuswWdQy-43" style="shape=partialRectangle;html=1;whiteSpace=wrap;connectable=0;strokeColor=inherit;overflow=hidden;fillColor=none;top=0;left=0;bottom=0;right=0;pointerEvents=1;fontSize=16;" vertex="1" parent="QPCRG1O05miaiuswWdQy-42">
          <mxGeometry width="268" height="40" as="geometry">
            <mxRectangle width="268" height="40" as="alternateBounds" />
          </mxGeometry>
        </mxCell>
        <mxCell id="QPCRG1O05miaiuswWdQy-44" style="shape=partialRectangle;html=1;whiteSpace=wrap;connectable=0;strokeColor=inherit;overflow=hidden;fillColor=none;top=0;left=0;bottom=0;right=0;pointerEvents=1;fontSize=16;" vertex="1" parent="QPCRG1O05miaiuswWdQy-42">
          <mxGeometry x="268" width="110" height="40" as="geometry">
            <mxRectangle width="110" height="40" as="alternateBounds" />
          </mxGeometry>
        </mxCell>
        <mxCell id="QPCRG1O05miaiuswWdQy-45" style="shape=partialRectangle;html=1;whiteSpace=wrap;connectable=0;strokeColor=inherit;overflow=hidden;fillColor=none;top=0;left=0;bottom=0;right=0;pointerEvents=1;fontSize=16;" vertex="1" parent="QPCRG1O05miaiuswWdQy-42">
          <mxGeometry x="378" width="103" height="40" as="geometry">
            <mxRectangle width="103" height="40" as="alternateBounds" />
          </mxGeometry>
        </mxCell>
        <mxCell id="QPCRG1O05miaiuswWdQy-46" style="shape=partialRectangle;html=1;whiteSpace=wrap;connectable=0;strokeColor=inherit;overflow=hidden;fillColor=none;top=0;left=0;bottom=0;right=0;pointerEvents=1;fontSize=16;" vertex="1" parent="QPCRG1O05miaiuswWdQy-42">
          <mxGeometry x="481" width="168" height="40" as="geometry">
            <mxRectangle width="168" height="40" as="alternateBounds" />
          </mxGeometry>
        </mxCell>
        <mxCell id="QPCRG1O05miaiuswWdQy-37" style="shape=tableRow;horizontal=0;startSize=0;swimlaneHead=0;swimlaneBody=0;strokeColor=inherit;top=0;left=0;bottom=0;right=0;collapsible=0;dropTarget=0;fillColor=none;points=[[0,0.5],[1,0.5]];portConstraint=eastwest;fontSize=16;" vertex="1" parent="QPCRG1O05miaiuswWdQy-0">
          <mxGeometry y="430" width="649" height="40" as="geometry" />
        </mxCell>
        <mxCell id="QPCRG1O05miaiuswWdQy-38" style="shape=partialRectangle;html=1;whiteSpace=wrap;connectable=0;strokeColor=inherit;overflow=hidden;fillColor=none;top=0;left=0;bottom=0;right=0;pointerEvents=1;fontSize=16;" vertex="1" parent="QPCRG1O05miaiuswWdQy-37">
          <mxGeometry width="268" height="40" as="geometry">
            <mxRectangle width="268" height="40" as="alternateBounds" />
          </mxGeometry>
        </mxCell>
        <mxCell id="QPCRG1O05miaiuswWdQy-39" style="shape=partialRectangle;html=1;whiteSpace=wrap;connectable=0;strokeColor=inherit;overflow=hidden;fillColor=none;top=0;left=0;bottom=0;right=0;pointerEvents=1;fontSize=16;" vertex="1" parent="QPCRG1O05miaiuswWdQy-37">
          <mxGeometry x="268" width="110" height="40" as="geometry">
            <mxRectangle width="110" height="40" as="alternateBounds" />
          </mxGeometry>
        </mxCell>
        <mxCell id="QPCRG1O05miaiuswWdQy-40" style="shape=partialRectangle;html=1;whiteSpace=wrap;connectable=0;strokeColor=inherit;overflow=hidden;fillColor=none;top=0;left=0;bottom=0;right=0;pointerEvents=1;fontSize=16;" vertex="1" parent="QPCRG1O05miaiuswWdQy-37">
          <mxGeometry x="378" width="103" height="40" as="geometry">
            <mxRectangle width="103" height="40" as="alternateBounds" />
          </mxGeometry>
        </mxCell>
        <mxCell id="QPCRG1O05miaiuswWdQy-41" style="shape=partialRectangle;html=1;whiteSpace=wrap;connectable=0;strokeColor=inherit;overflow=hidden;fillColor=none;top=0;left=0;bottom=0;right=0;pointerEvents=1;fontSize=16;" vertex="1" parent="QPCRG1O05miaiuswWdQy-37">
          <mxGeometry x="481" width="168" height="40" as="geometry">
            <mxRectangle width="168" height="40" as="alternateBounds" />
          </mxGeometry>
        </mxCell>
        <mxCell id="QPCRG1O05miaiuswWdQy-32" style="shape=tableRow;horizontal=0;startSize=0;swimlaneHead=0;swimlaneBody=0;strokeColor=inherit;top=0;left=0;bottom=0;right=0;collapsible=0;dropTarget=0;fillColor=none;points=[[0,0.5],[1,0.5]];portConstraint=eastwest;fontSize=16;" vertex="1" parent="QPCRG1O05miaiuswWdQy-0">
          <mxGeometry y="470" width="649" height="40" as="geometry" />
        </mxCell>
        <mxCell id="QPCRG1O05miaiuswWdQy-33" style="shape=partialRectangle;html=1;whiteSpace=wrap;connectable=0;strokeColor=inherit;overflow=hidden;fillColor=none;top=0;left=0;bottom=0;right=0;pointerEvents=1;fontSize=16;" vertex="1" parent="QPCRG1O05miaiuswWdQy-32">
          <mxGeometry width="268" height="40" as="geometry">
            <mxRectangle width="268" height="40" as="alternateBounds" />
          </mxGeometry>
        </mxCell>
        <mxCell id="QPCRG1O05miaiuswWdQy-34" style="shape=partialRectangle;html=1;whiteSpace=wrap;connectable=0;strokeColor=inherit;overflow=hidden;fillColor=none;top=0;left=0;bottom=0;right=0;pointerEvents=1;fontSize=16;" vertex="1" parent="QPCRG1O05miaiuswWdQy-32">
          <mxGeometry x="268" width="110" height="40" as="geometry">
            <mxRectangle width="110" height="40" as="alternateBounds" />
          </mxGeometry>
        </mxCell>
        <mxCell id="QPCRG1O05miaiuswWdQy-35" style="shape=partialRectangle;html=1;whiteSpace=wrap;connectable=0;strokeColor=inherit;overflow=hidden;fillColor=none;top=0;left=0;bottom=0;right=0;pointerEvents=1;fontSize=16;" vertex="1" parent="QPCRG1O05miaiuswWdQy-32">
          <mxGeometry x="378" width="103" height="40" as="geometry">
            <mxRectangle width="103" height="40" as="alternateBounds" />
          </mxGeometry>
        </mxCell>
        <mxCell id="QPCRG1O05miaiuswWdQy-36" style="shape=partialRectangle;html=1;whiteSpace=wrap;connectable=0;strokeColor=inherit;overflow=hidden;fillColor=none;top=0;left=0;bottom=0;right=0;pointerEvents=1;fontSize=16;" vertex="1" parent="QPCRG1O05miaiuswWdQy-32">
          <mxGeometry x="481" width="168" height="40" as="geometry">
            <mxRectangle width="168" height="40" as="alternateBounds" />
          </mxGeometry>
        </mxCell>
        <mxCell id="QPCRG1O05miaiuswWdQy-27" style="shape=tableRow;horizontal=0;startSize=0;swimlaneHead=0;swimlaneBody=0;strokeColor=inherit;top=0;left=0;bottom=0;right=0;collapsible=0;dropTarget=0;fillColor=none;points=[[0,0.5],[1,0.5]];portConstraint=eastwest;fontSize=16;" vertex="1" parent="QPCRG1O05miaiuswWdQy-0">
          <mxGeometry y="510" width="649" height="40" as="geometry" />
        </mxCell>
        <mxCell id="QPCRG1O05miaiuswWdQy-28" style="shape=partialRectangle;html=1;whiteSpace=wrap;connectable=0;strokeColor=inherit;overflow=hidden;fillColor=none;top=0;left=0;bottom=0;right=0;pointerEvents=1;fontSize=16;" vertex="1" parent="QPCRG1O05miaiuswWdQy-27">
          <mxGeometry width="268" height="40" as="geometry">
            <mxRectangle width="268" height="40" as="alternateBounds" />
          </mxGeometry>
        </mxCell>
        <mxCell id="QPCRG1O05miaiuswWdQy-29" style="shape=partialRectangle;html=1;whiteSpace=wrap;connectable=0;strokeColor=inherit;overflow=hidden;fillColor=none;top=0;left=0;bottom=0;right=0;pointerEvents=1;fontSize=16;" vertex="1" parent="QPCRG1O05miaiuswWdQy-27">
          <mxGeometry x="268" width="110" height="40" as="geometry">
            <mxRectangle width="110" height="40" as="alternateBounds" />
          </mxGeometry>
        </mxCell>
        <mxCell id="QPCRG1O05miaiuswWdQy-30" style="shape=partialRectangle;html=1;whiteSpace=wrap;connectable=0;strokeColor=inherit;overflow=hidden;fillColor=none;top=0;left=0;bottom=0;right=0;pointerEvents=1;fontSize=16;" vertex="1" parent="QPCRG1O05miaiuswWdQy-27">
          <mxGeometry x="378" width="103" height="40" as="geometry">
            <mxRectangle width="103" height="40" as="alternateBounds" />
          </mxGeometry>
        </mxCell>
        <mxCell id="QPCRG1O05miaiuswWdQy-31" style="shape=partialRectangle;html=1;whiteSpace=wrap;connectable=0;strokeColor=inherit;overflow=hidden;fillColor=none;top=0;left=0;bottom=0;right=0;pointerEvents=1;fontSize=16;" vertex="1" parent="QPCRG1O05miaiuswWdQy-27">
          <mxGeometry x="481" width="168" height="40" as="geometry">
            <mxRectangle width="168" height="40" as="alternateBounds" />
          </mxGeometry>
        </mxCell>
        <mxCell id="QPCRG1O05miaiuswWdQy-22" style="shape=tableRow;horizontal=0;startSize=0;swimlaneHead=0;swimlaneBody=0;strokeColor=inherit;top=0;left=0;bottom=0;right=0;collapsible=0;dropTarget=0;fillColor=none;points=[[0,0.5],[1,0.5]];portConstraint=eastwest;fontSize=16;" vertex="1" parent="QPCRG1O05miaiuswWdQy-0">
          <mxGeometry y="550" width="649" height="40" as="geometry" />
        </mxCell>
        <mxCell id="QPCRG1O05miaiuswWdQy-23" style="shape=partialRectangle;html=1;whiteSpace=wrap;connectable=0;strokeColor=inherit;overflow=hidden;fillColor=none;top=0;left=0;bottom=0;right=0;pointerEvents=1;fontSize=16;" vertex="1" parent="QPCRG1O05miaiuswWdQy-22">
          <mxGeometry width="268" height="40" as="geometry">
            <mxRectangle width="268" height="40" as="alternateBounds" />
          </mxGeometry>
        </mxCell>
        <mxCell id="QPCRG1O05miaiuswWdQy-24" style="shape=partialRectangle;html=1;whiteSpace=wrap;connectable=0;strokeColor=inherit;overflow=hidden;fillColor=none;top=0;left=0;bottom=0;right=0;pointerEvents=1;fontSize=16;" vertex="1" parent="QPCRG1O05miaiuswWdQy-22">
          <mxGeometry x="268" width="110" height="40" as="geometry">
            <mxRectangle width="110" height="40" as="alternateBounds" />
          </mxGeometry>
        </mxCell>
        <mxCell id="QPCRG1O05miaiuswWdQy-25" style="shape=partialRectangle;html=1;whiteSpace=wrap;connectable=0;strokeColor=inherit;overflow=hidden;fillColor=none;top=0;left=0;bottom=0;right=0;pointerEvents=1;fontSize=16;" vertex="1" parent="QPCRG1O05miaiuswWdQy-22">
          <mxGeometry x="378" width="103" height="40" as="geometry">
            <mxRectangle width="103" height="40" as="alternateBounds" />
          </mxGeometry>
        </mxCell>
        <mxCell id="QPCRG1O05miaiuswWdQy-26" style="shape=partialRectangle;html=1;whiteSpace=wrap;connectable=0;strokeColor=inherit;overflow=hidden;fillColor=none;top=0;left=0;bottom=0;right=0;pointerEvents=1;fontSize=16;" vertex="1" parent="QPCRG1O05miaiuswWdQy-22">
          <mxGeometry x="481" width="168" height="40" as="geometry">
            <mxRectangle width="168" height="40" as="alternateBounds" />
          </mxGeometry>
        </mxCell>
        <mxCell id="QPCRG1O05miaiuswWdQy-17" style="shape=tableRow;horizontal=0;startSize=0;swimlaneHead=0;swimlaneBody=0;strokeColor=inherit;top=0;left=0;bottom=0;right=0;collapsible=0;dropTarget=0;fillColor=none;points=[[0,0.5],[1,0.5]];portConstraint=eastwest;fontSize=16;" vertex="1" parent="QPCRG1O05miaiuswWdQy-0">
          <mxGeometry y="590" width="649" height="40" as="geometry" />
        </mxCell>
        <mxCell id="QPCRG1O05miaiuswWdQy-18" style="shape=partialRectangle;html=1;whiteSpace=wrap;connectable=0;strokeColor=inherit;overflow=hidden;fillColor=none;top=0;left=0;bottom=0;right=0;pointerEvents=1;fontSize=16;" vertex="1" parent="QPCRG1O05miaiuswWdQy-17">
          <mxGeometry width="268" height="40" as="geometry">
            <mxRectangle width="268" height="40" as="alternateBounds" />
          </mxGeometry>
        </mxCell>
        <mxCell id="QPCRG1O05miaiuswWdQy-19" style="shape=partialRectangle;html=1;whiteSpace=wrap;connectable=0;strokeColor=inherit;overflow=hidden;fillColor=none;top=0;left=0;bottom=0;right=0;pointerEvents=1;fontSize=16;" vertex="1" parent="QPCRG1O05miaiuswWdQy-17">
          <mxGeometry x="268" width="110" height="40" as="geometry">
            <mxRectangle width="110" height="40" as="alternateBounds" />
          </mxGeometry>
        </mxCell>
        <mxCell id="QPCRG1O05miaiuswWdQy-20" style="shape=partialRectangle;html=1;whiteSpace=wrap;connectable=0;strokeColor=inherit;overflow=hidden;fillColor=none;top=0;left=0;bottom=0;right=0;pointerEvents=1;fontSize=16;" vertex="1" parent="QPCRG1O05miaiuswWdQy-17">
          <mxGeometry x="378" width="103" height="40" as="geometry">
            <mxRectangle width="103" height="40" as="alternateBounds" />
          </mxGeometry>
        </mxCell>
        <mxCell id="QPCRG1O05miaiuswWdQy-21" style="shape=partialRectangle;html=1;whiteSpace=wrap;connectable=0;strokeColor=inherit;overflow=hidden;fillColor=none;top=0;left=0;bottom=0;right=0;pointerEvents=1;fontSize=16;" vertex="1" parent="QPCRG1O05miaiuswWdQy-17">
          <mxGeometry x="481" width="168" height="40" as="geometry">
            <mxRectangle width="168" height="40" as="alternateBounds" />
          </mxGeometry>
        </mxCell>
        <mxCell id="QPCRG1O05miaiuswWdQy-77" value="User List" style="shape=table;startSize=30;container=1;collapsible=0;childLayout=tableLayout;strokeColor=default;fontSize=16;sketch=1;curveFitting=1;jiggle=2;fontFamily=Architects Daughter;" vertex="1" parent="9nyhaM-fOjj10Sf_9-sc-2">
          <mxGeometry x="719" y="46" width="787" height="350" as="geometry" />
        </mxCell>
        <mxCell id="QPCRG1O05miaiuswWdQy-78" value="" style="shape=tableRow;horizontal=0;startSize=0;swimlaneHead=0;swimlaneBody=0;strokeColor=inherit;top=0;left=0;bottom=0;right=0;collapsible=0;dropTarget=0;fillColor=none;points=[[0,0.5],[1,0.5]];portConstraint=eastwest;fontSize=16;" vertex="1" parent="QPCRG1O05miaiuswWdQy-77">
          <mxGeometry y="30" width="787" height="40" as="geometry" />
        </mxCell>
        <mxCell id="QPCRG1O05miaiuswWdQy-79" value="User" style="shape=partialRectangle;html=1;whiteSpace=wrap;connectable=0;strokeColor=inherit;overflow=hidden;fillColor=none;top=0;left=0;bottom=0;right=0;pointerEvents=1;fontSize=16;" vertex="1" parent="QPCRG1O05miaiuswWdQy-78">
          <mxGeometry width="344" height="40" as="geometry">
            <mxRectangle width="344" height="40" as="alternateBounds" />
          </mxGeometry>
        </mxCell>
        <mxCell id="QPCRG1O05miaiuswWdQy-80" value="Dept" style="shape=partialRectangle;html=1;whiteSpace=wrap;connectable=0;strokeColor=inherit;overflow=hidden;fillColor=none;top=0;left=0;bottom=0;right=0;pointerEvents=1;fontSize=16;" vertex="1" parent="QPCRG1O05miaiuswWdQy-78">
          <mxGeometry x="344" width="188" height="40" as="geometry">
            <mxRectangle width="188" height="40" as="alternateBounds" />
          </mxGeometry>
        </mxCell>
        <mxCell id="QPCRG1O05miaiuswWdQy-81" value="Access Count" style="shape=partialRectangle;html=1;whiteSpace=wrap;connectable=0;strokeColor=inherit;overflow=hidden;fillColor=none;top=0;left=0;bottom=0;right=0;pointerEvents=1;fontSize=16;" vertex="1" parent="QPCRG1O05miaiuswWdQy-78">
          <mxGeometry x="532" width="110" height="40" as="geometry">
            <mxRectangle width="110" height="40" as="alternateBounds" />
          </mxGeometry>
        </mxCell>
        <mxCell id="eYtaGiSR5ny6Jgzyoth1-0" value="Last Accessed" style="shape=partialRectangle;html=1;whiteSpace=wrap;connectable=0;strokeColor=inherit;overflow=hidden;fillColor=none;top=0;left=0;bottom=0;right=0;pointerEvents=1;fontSize=16;" vertex="1" parent="QPCRG1O05miaiuswWdQy-78">
          <mxGeometry x="642" width="145" height="40" as="geometry">
            <mxRectangle width="145" height="40" as="alternateBounds" />
          </mxGeometry>
        </mxCell>
        <mxCell id="QPCRG1O05miaiuswWdQy-83" value="" style="shape=tableRow;horizontal=0;startSize=0;swimlaneHead=0;swimlaneBody=0;strokeColor=inherit;top=0;left=0;bottom=0;right=0;collapsible=0;dropTarget=0;fillColor=none;points=[[0,0.5],[1,0.5]];portConstraint=eastwest;fontSize=16;" vertex="1" parent="QPCRG1O05miaiuswWdQy-77">
          <mxGeometry y="70" width="787" height="40" as="geometry" />
        </mxCell>
        <mxCell id="QPCRG1O05miaiuswWdQy-84" value="" style="shape=partialRectangle;html=1;whiteSpace=wrap;connectable=0;strokeColor=inherit;overflow=hidden;fillColor=none;top=0;left=0;bottom=0;right=0;pointerEvents=1;fontSize=16;" vertex="1" parent="QPCRG1O05miaiuswWdQy-83">
          <mxGeometry width="344" height="40" as="geometry">
            <mxRectangle width="344" height="40" as="alternateBounds" />
          </mxGeometry>
        </mxCell>
        <mxCell id="QPCRG1O05miaiuswWdQy-85" value="" style="shape=partialRectangle;html=1;whiteSpace=wrap;connectable=0;strokeColor=inherit;overflow=hidden;fillColor=none;top=0;left=0;bottom=0;right=0;pointerEvents=1;fontSize=16;" vertex="1" parent="QPCRG1O05miaiuswWdQy-83">
          <mxGeometry x="344" width="188" height="40" as="geometry">
            <mxRectangle width="188" height="40" as="alternateBounds" />
          </mxGeometry>
        </mxCell>
        <mxCell id="QPCRG1O05miaiuswWdQy-86" value="" style="shape=partialRectangle;html=1;whiteSpace=wrap;connectable=0;strokeColor=inherit;overflow=hidden;fillColor=none;top=0;left=0;bottom=0;right=0;pointerEvents=1;fontSize=16;" vertex="1" parent="QPCRG1O05miaiuswWdQy-83">
          <mxGeometry x="532" width="110" height="40" as="geometry">
            <mxRectangle width="110" height="40" as="alternateBounds" />
          </mxGeometry>
        </mxCell>
        <mxCell id="eYtaGiSR5ny6Jgzyoth1-1" style="shape=partialRectangle;html=1;whiteSpace=wrap;connectable=0;strokeColor=inherit;overflow=hidden;fillColor=none;top=0;left=0;bottom=0;right=0;pointerEvents=1;fontSize=16;" vertex="1" parent="QPCRG1O05miaiuswWdQy-83">
          <mxGeometry x="642" width="145" height="40" as="geometry">
            <mxRectangle width="145" height="40" as="alternateBounds" />
          </mxGeometry>
        </mxCell>
        <mxCell id="QPCRG1O05miaiuswWdQy-88" value="" style="shape=tableRow;horizontal=0;startSize=0;swimlaneHead=0;swimlaneBody=0;strokeColor=inherit;top=0;left=0;bottom=0;right=0;collapsible=0;dropTarget=0;fillColor=none;points=[[0,0.5],[1,0.5]];portConstraint=eastwest;fontSize=16;" vertex="1" parent="QPCRG1O05miaiuswWdQy-77">
          <mxGeometry y="110" width="787" height="40" as="geometry" />
        </mxCell>
        <mxCell id="QPCRG1O05miaiuswWdQy-89" value="" style="shape=partialRectangle;html=1;whiteSpace=wrap;connectable=0;strokeColor=inherit;overflow=hidden;fillColor=none;top=0;left=0;bottom=0;right=0;pointerEvents=1;fontSize=16;" vertex="1" parent="QPCRG1O05miaiuswWdQy-88">
          <mxGeometry width="344" height="40" as="geometry">
            <mxRectangle width="344" height="40" as="alternateBounds" />
          </mxGeometry>
        </mxCell>
        <mxCell id="QPCRG1O05miaiuswWdQy-90" value="" style="shape=partialRectangle;html=1;whiteSpace=wrap;connectable=0;strokeColor=inherit;overflow=hidden;fillColor=none;top=0;left=0;bottom=0;right=0;pointerEvents=1;fontSize=16;" vertex="1" parent="QPCRG1O05miaiuswWdQy-88">
          <mxGeometry x="344" width="188" height="40" as="geometry">
            <mxRectangle width="188" height="40" as="alternateBounds" />
          </mxGeometry>
        </mxCell>
        <mxCell id="QPCRG1O05miaiuswWdQy-91" value="" style="shape=partialRectangle;html=1;whiteSpace=wrap;connectable=0;strokeColor=inherit;overflow=hidden;fillColor=none;top=0;left=0;bottom=0;right=0;pointerEvents=1;fontSize=16;" vertex="1" parent="QPCRG1O05miaiuswWdQy-88">
          <mxGeometry x="532" width="110" height="40" as="geometry">
            <mxRectangle width="110" height="40" as="alternateBounds" />
          </mxGeometry>
        </mxCell>
        <mxCell id="eYtaGiSR5ny6Jgzyoth1-2" style="shape=partialRectangle;html=1;whiteSpace=wrap;connectable=0;strokeColor=inherit;overflow=hidden;fillColor=none;top=0;left=0;bottom=0;right=0;pointerEvents=1;fontSize=16;" vertex="1" parent="QPCRG1O05miaiuswWdQy-88">
          <mxGeometry x="642" width="145" height="40" as="geometry">
            <mxRectangle width="145" height="40" as="alternateBounds" />
          </mxGeometry>
        </mxCell>
        <mxCell id="QPCRG1O05miaiuswWdQy-93" style="shape=tableRow;horizontal=0;startSize=0;swimlaneHead=0;swimlaneBody=0;strokeColor=inherit;top=0;left=0;bottom=0;right=0;collapsible=0;dropTarget=0;fillColor=none;points=[[0,0.5],[1,0.5]];portConstraint=eastwest;fontSize=16;" vertex="1" parent="QPCRG1O05miaiuswWdQy-77">
          <mxGeometry y="150" width="787" height="40" as="geometry" />
        </mxCell>
        <mxCell id="QPCRG1O05miaiuswWdQy-94" style="shape=partialRectangle;html=1;whiteSpace=wrap;connectable=0;strokeColor=inherit;overflow=hidden;fillColor=none;top=0;left=0;bottom=0;right=0;pointerEvents=1;fontSize=16;" vertex="1" parent="QPCRG1O05miaiuswWdQy-93">
          <mxGeometry width="344" height="40" as="geometry">
            <mxRectangle width="344" height="40" as="alternateBounds" />
          </mxGeometry>
        </mxCell>
        <mxCell id="QPCRG1O05miaiuswWdQy-95" style="shape=partialRectangle;html=1;whiteSpace=wrap;connectable=0;strokeColor=inherit;overflow=hidden;fillColor=none;top=0;left=0;bottom=0;right=0;pointerEvents=1;fontSize=16;" vertex="1" parent="QPCRG1O05miaiuswWdQy-93">
          <mxGeometry x="344" width="188" height="40" as="geometry">
            <mxRectangle width="188" height="40" as="alternateBounds" />
          </mxGeometry>
        </mxCell>
        <mxCell id="QPCRG1O05miaiuswWdQy-96" style="shape=partialRectangle;html=1;whiteSpace=wrap;connectable=0;strokeColor=inherit;overflow=hidden;fillColor=none;top=0;left=0;bottom=0;right=0;pointerEvents=1;fontSize=16;" vertex="1" parent="QPCRG1O05miaiuswWdQy-93">
          <mxGeometry x="532" width="110" height="40" as="geometry">
            <mxRectangle width="110" height="40" as="alternateBounds" />
          </mxGeometry>
        </mxCell>
        <mxCell id="eYtaGiSR5ny6Jgzyoth1-3" style="shape=partialRectangle;html=1;whiteSpace=wrap;connectable=0;strokeColor=inherit;overflow=hidden;fillColor=none;top=0;left=0;bottom=0;right=0;pointerEvents=1;fontSize=16;" vertex="1" parent="QPCRG1O05miaiuswWdQy-93">
          <mxGeometry x="642" width="145" height="40" as="geometry">
            <mxRectangle width="145" height="40" as="alternateBounds" />
          </mxGeometry>
        </mxCell>
        <mxCell id="QPCRG1O05miaiuswWdQy-98" style="shape=tableRow;horizontal=0;startSize=0;swimlaneHead=0;swimlaneBody=0;strokeColor=inherit;top=0;left=0;bottom=0;right=0;collapsible=0;dropTarget=0;fillColor=none;points=[[0,0.5],[1,0.5]];portConstraint=eastwest;fontSize=16;" vertex="1" parent="QPCRG1O05miaiuswWdQy-77">
          <mxGeometry y="190" width="787" height="40" as="geometry" />
        </mxCell>
        <mxCell id="QPCRG1O05miaiuswWdQy-99" style="shape=partialRectangle;html=1;whiteSpace=wrap;connectable=0;strokeColor=inherit;overflow=hidden;fillColor=none;top=0;left=0;bottom=0;right=0;pointerEvents=1;fontSize=16;" vertex="1" parent="QPCRG1O05miaiuswWdQy-98">
          <mxGeometry width="344" height="40" as="geometry">
            <mxRectangle width="344" height="40" as="alternateBounds" />
          </mxGeometry>
        </mxCell>
        <mxCell id="QPCRG1O05miaiuswWdQy-100" style="shape=partialRectangle;html=1;whiteSpace=wrap;connectable=0;strokeColor=inherit;overflow=hidden;fillColor=none;top=0;left=0;bottom=0;right=0;pointerEvents=1;fontSize=16;" vertex="1" parent="QPCRG1O05miaiuswWdQy-98">
          <mxGeometry x="344" width="188" height="40" as="geometry">
            <mxRectangle width="188" height="40" as="alternateBounds" />
          </mxGeometry>
        </mxCell>
        <mxCell id="QPCRG1O05miaiuswWdQy-101" style="shape=partialRectangle;html=1;whiteSpace=wrap;connectable=0;strokeColor=inherit;overflow=hidden;fillColor=none;top=0;left=0;bottom=0;right=0;pointerEvents=1;fontSize=16;" vertex="1" parent="QPCRG1O05miaiuswWdQy-98">
          <mxGeometry x="532" width="110" height="40" as="geometry">
            <mxRectangle width="110" height="40" as="alternateBounds" />
          </mxGeometry>
        </mxCell>
        <mxCell id="eYtaGiSR5ny6Jgzyoth1-4" style="shape=partialRectangle;html=1;whiteSpace=wrap;connectable=0;strokeColor=inherit;overflow=hidden;fillColor=none;top=0;left=0;bottom=0;right=0;pointerEvents=1;fontSize=16;" vertex="1" parent="QPCRG1O05miaiuswWdQy-98">
          <mxGeometry x="642" width="145" height="40" as="geometry">
            <mxRectangle width="145" height="40" as="alternateBounds" />
          </mxGeometry>
        </mxCell>
        <mxCell id="QPCRG1O05miaiuswWdQy-103" style="shape=tableRow;horizontal=0;startSize=0;swimlaneHead=0;swimlaneBody=0;strokeColor=inherit;top=0;left=0;bottom=0;right=0;collapsible=0;dropTarget=0;fillColor=none;points=[[0,0.5],[1,0.5]];portConstraint=eastwest;fontSize=16;" vertex="1" parent="QPCRG1O05miaiuswWdQy-77">
          <mxGeometry y="230" width="787" height="40" as="geometry" />
        </mxCell>
        <mxCell id="QPCRG1O05miaiuswWdQy-104" style="shape=partialRectangle;html=1;whiteSpace=wrap;connectable=0;strokeColor=inherit;overflow=hidden;fillColor=none;top=0;left=0;bottom=0;right=0;pointerEvents=1;fontSize=16;" vertex="1" parent="QPCRG1O05miaiuswWdQy-103">
          <mxGeometry width="344" height="40" as="geometry">
            <mxRectangle width="344" height="40" as="alternateBounds" />
          </mxGeometry>
        </mxCell>
        <mxCell id="QPCRG1O05miaiuswWdQy-105" style="shape=partialRectangle;html=1;whiteSpace=wrap;connectable=0;strokeColor=inherit;overflow=hidden;fillColor=none;top=0;left=0;bottom=0;right=0;pointerEvents=1;fontSize=16;" vertex="1" parent="QPCRG1O05miaiuswWdQy-103">
          <mxGeometry x="344" width="188" height="40" as="geometry">
            <mxRectangle width="188" height="40" as="alternateBounds" />
          </mxGeometry>
        </mxCell>
        <mxCell id="QPCRG1O05miaiuswWdQy-106" style="shape=partialRectangle;html=1;whiteSpace=wrap;connectable=0;strokeColor=inherit;overflow=hidden;fillColor=none;top=0;left=0;bottom=0;right=0;pointerEvents=1;fontSize=16;" vertex="1" parent="QPCRG1O05miaiuswWdQy-103">
          <mxGeometry x="532" width="110" height="40" as="geometry">
            <mxRectangle width="110" height="40" as="alternateBounds" />
          </mxGeometry>
        </mxCell>
        <mxCell id="eYtaGiSR5ny6Jgzyoth1-5" style="shape=partialRectangle;html=1;whiteSpace=wrap;connectable=0;strokeColor=inherit;overflow=hidden;fillColor=none;top=0;left=0;bottom=0;right=0;pointerEvents=1;fontSize=16;" vertex="1" parent="QPCRG1O05miaiuswWdQy-103">
          <mxGeometry x="642" width="145" height="40" as="geometry">
            <mxRectangle width="145" height="40" as="alternateBounds" />
          </mxGeometry>
        </mxCell>
        <mxCell id="eYtaGiSR5ny6Jgzyoth1-18" style="shape=tableRow;horizontal=0;startSize=0;swimlaneHead=0;swimlaneBody=0;strokeColor=inherit;top=0;left=0;bottom=0;right=0;collapsible=0;dropTarget=0;fillColor=none;points=[[0,0.5],[1,0.5]];portConstraint=eastwest;fontSize=16;" vertex="1" parent="QPCRG1O05miaiuswWdQy-77">
          <mxGeometry y="270" width="787" height="40" as="geometry" />
        </mxCell>
        <mxCell id="eYtaGiSR5ny6Jgzyoth1-19" style="shape=partialRectangle;html=1;whiteSpace=wrap;connectable=0;strokeColor=inherit;overflow=hidden;fillColor=none;top=0;left=0;bottom=0;right=0;pointerEvents=1;fontSize=16;" vertex="1" parent="eYtaGiSR5ny6Jgzyoth1-18">
          <mxGeometry width="344" height="40" as="geometry">
            <mxRectangle width="344" height="40" as="alternateBounds" />
          </mxGeometry>
        </mxCell>
        <mxCell id="eYtaGiSR5ny6Jgzyoth1-20" style="shape=partialRectangle;html=1;whiteSpace=wrap;connectable=0;strokeColor=inherit;overflow=hidden;fillColor=none;top=0;left=0;bottom=0;right=0;pointerEvents=1;fontSize=16;" vertex="1" parent="eYtaGiSR5ny6Jgzyoth1-18">
          <mxGeometry x="344" width="188" height="40" as="geometry">
            <mxRectangle width="188" height="40" as="alternateBounds" />
          </mxGeometry>
        </mxCell>
        <mxCell id="eYtaGiSR5ny6Jgzyoth1-21" style="shape=partialRectangle;html=1;whiteSpace=wrap;connectable=0;strokeColor=inherit;overflow=hidden;fillColor=none;top=0;left=0;bottom=0;right=0;pointerEvents=1;fontSize=16;" vertex="1" parent="eYtaGiSR5ny6Jgzyoth1-18">
          <mxGeometry x="532" width="110" height="40" as="geometry">
            <mxRectangle width="110" height="40" as="alternateBounds" />
          </mxGeometry>
        </mxCell>
        <mxCell id="eYtaGiSR5ny6Jgzyoth1-22" style="shape=partialRectangle;html=1;whiteSpace=wrap;connectable=0;strokeColor=inherit;overflow=hidden;fillColor=none;top=0;left=0;bottom=0;right=0;pointerEvents=1;fontSize=16;" vertex="1" parent="eYtaGiSR5ny6Jgzyoth1-18">
          <mxGeometry x="642" width="145" height="40" as="geometry">
            <mxRectangle width="145" height="40" as="alternateBounds" />
          </mxGeometry>
        </mxCell>
        <mxCell id="eYtaGiSR5ny6Jgzyoth1-23" style="shape=tableRow;horizontal=0;startSize=0;swimlaneHead=0;swimlaneBody=0;strokeColor=inherit;top=0;left=0;bottom=0;right=0;collapsible=0;dropTarget=0;fillColor=none;points=[[0,0.5],[1,0.5]];portConstraint=eastwest;fontSize=16;" vertex="1" parent="QPCRG1O05miaiuswWdQy-77">
          <mxGeometry y="310" width="787" height="40" as="geometry" />
        </mxCell>
        <mxCell id="eYtaGiSR5ny6Jgzyoth1-24" style="shape=partialRectangle;html=1;whiteSpace=wrap;connectable=0;strokeColor=inherit;overflow=hidden;fillColor=none;top=0;left=0;bottom=0;right=0;pointerEvents=1;fontSize=16;" vertex="1" parent="eYtaGiSR5ny6Jgzyoth1-23">
          <mxGeometry width="344" height="40" as="geometry">
            <mxRectangle width="344" height="40" as="alternateBounds" />
          </mxGeometry>
        </mxCell>
        <mxCell id="eYtaGiSR5ny6Jgzyoth1-25" style="shape=partialRectangle;html=1;whiteSpace=wrap;connectable=0;strokeColor=inherit;overflow=hidden;fillColor=none;top=0;left=0;bottom=0;right=0;pointerEvents=1;fontSize=16;" vertex="1" parent="eYtaGiSR5ny6Jgzyoth1-23">
          <mxGeometry x="344" width="188" height="40" as="geometry">
            <mxRectangle width="188" height="40" as="alternateBounds" />
          </mxGeometry>
        </mxCell>
        <mxCell id="eYtaGiSR5ny6Jgzyoth1-26" style="shape=partialRectangle;html=1;whiteSpace=wrap;connectable=0;strokeColor=inherit;overflow=hidden;fillColor=none;top=0;left=0;bottom=0;right=0;pointerEvents=1;fontSize=16;" vertex="1" parent="eYtaGiSR5ny6Jgzyoth1-23">
          <mxGeometry x="532" width="110" height="40" as="geometry">
            <mxRectangle width="110" height="40" as="alternateBounds" />
          </mxGeometry>
        </mxCell>
        <mxCell id="eYtaGiSR5ny6Jgzyoth1-27" style="shape=partialRectangle;html=1;whiteSpace=wrap;connectable=0;strokeColor=inherit;overflow=hidden;fillColor=none;top=0;left=0;bottom=0;right=0;pointerEvents=1;fontSize=16;" vertex="1" parent="eYtaGiSR5ny6Jgzyoth1-23">
          <mxGeometry x="642" width="145" height="40" as="geometry">
            <mxRectangle width="145" height="40" as="alternateBounds" />
          </mxGeometry>
        </mxCell>
        <mxCell id="QPCRG1O05miaiuswWdQy-153" value="Indiviual Access Log Record (All columns?)" style="shape=table;startSize=30;container=1;collapsible=0;childLayout=tableLayout;strokeColor=default;fontSize=16;sketch=1;curveFitting=1;jiggle=2;fontFamily=Architects Daughter;" vertex="1" parent="9nyhaM-fOjj10Sf_9-sc-2">
          <mxGeometry x="719" y="404" width="784" height="270" as="geometry" />
        </mxCell>
        <mxCell id="QPCRG1O05miaiuswWdQy-154" value="" style="shape=tableRow;horizontal=0;startSize=0;swimlaneHead=0;swimlaneBody=0;strokeColor=inherit;top=0;left=0;bottom=0;right=0;collapsible=0;dropTarget=0;fillColor=none;points=[[0,0.5],[1,0.5]];portConstraint=eastwest;fontSize=16;" vertex="1" parent="QPCRG1O05miaiuswWdQy-153">
          <mxGeometry y="30" width="784" height="40" as="geometry" />
        </mxCell>
        <mxCell id="QPCRG1O05miaiuswWdQy-155" value="User" style="shape=partialRectangle;html=1;whiteSpace=wrap;connectable=0;strokeColor=inherit;overflow=hidden;fillColor=none;top=0;left=0;bottom=0;right=0;pointerEvents=1;fontSize=16;" vertex="1" parent="QPCRG1O05miaiuswWdQy-154">
          <mxGeometry width="238" height="40" as="geometry">
            <mxRectangle width="238" height="40" as="alternateBounds" />
          </mxGeometry>
        </mxCell>
        <mxCell id="QPCRG1O05miaiuswWdQy-156" value="Date" style="shape=partialRectangle;html=1;whiteSpace=wrap;connectable=0;strokeColor=inherit;overflow=hidden;fillColor=none;top=0;left=0;bottom=0;right=0;pointerEvents=1;fontSize=16;" vertex="1" parent="QPCRG1O05miaiuswWdQy-154">
          <mxGeometry x="238" width="106" height="40" as="geometry">
            <mxRectangle width="106" height="40" as="alternateBounds" />
          </mxGeometry>
        </mxCell>
        <mxCell id="QPCRG1O05miaiuswWdQy-157" value="Duration" style="shape=partialRectangle;html=1;whiteSpace=wrap;connectable=0;strokeColor=inherit;overflow=hidden;fillColor=none;top=0;left=0;bottom=0;right=0;pointerEvents=1;fontSize=16;" vertex="1" parent="QPCRG1O05miaiuswWdQy-154">
          <mxGeometry x="344" width="146" height="40" as="geometry">
            <mxRectangle width="146" height="40" as="alternateBounds" />
          </mxGeometry>
        </mxCell>
        <mxCell id="eYtaGiSR5ny6Jgzyoth1-6" value="etc." style="shape=partialRectangle;html=1;whiteSpace=wrap;connectable=0;strokeColor=inherit;overflow=hidden;fillColor=none;top=0;left=0;bottom=0;right=0;pointerEvents=1;fontSize=16;" vertex="1" parent="QPCRG1O05miaiuswWdQy-154">
          <mxGeometry x="490" width="147" height="40" as="geometry">
            <mxRectangle width="147" height="40" as="alternateBounds" />
          </mxGeometry>
        </mxCell>
        <mxCell id="eYtaGiSR5ny6Jgzyoth1-12" value="etc." style="shape=partialRectangle;html=1;whiteSpace=wrap;connectable=0;strokeColor=inherit;overflow=hidden;fillColor=none;top=0;left=0;bottom=0;right=0;pointerEvents=1;fontSize=16;" vertex="1" parent="QPCRG1O05miaiuswWdQy-154">
          <mxGeometry x="637" width="147" height="40" as="geometry">
            <mxRectangle width="147" height="40" as="alternateBounds" />
          </mxGeometry>
        </mxCell>
        <mxCell id="QPCRG1O05miaiuswWdQy-158" value="" style="shape=tableRow;horizontal=0;startSize=0;swimlaneHead=0;swimlaneBody=0;strokeColor=inherit;top=0;left=0;bottom=0;right=0;collapsible=0;dropTarget=0;fillColor=none;points=[[0,0.5],[1,0.5]];portConstraint=eastwest;fontSize=16;" vertex="1" parent="QPCRG1O05miaiuswWdQy-153">
          <mxGeometry y="70" width="784" height="40" as="geometry" />
        </mxCell>
        <mxCell id="QPCRG1O05miaiuswWdQy-159" value="" style="shape=partialRectangle;html=1;whiteSpace=wrap;connectable=0;strokeColor=inherit;overflow=hidden;fillColor=none;top=0;left=0;bottom=0;right=0;pointerEvents=1;fontSize=16;" vertex="1" parent="QPCRG1O05miaiuswWdQy-158">
          <mxGeometry width="238" height="40" as="geometry">
            <mxRectangle width="238" height="40" as="alternateBounds" />
          </mxGeometry>
        </mxCell>
        <mxCell id="QPCRG1O05miaiuswWdQy-160" value="" style="shape=partialRectangle;html=1;whiteSpace=wrap;connectable=0;strokeColor=inherit;overflow=hidden;fillColor=none;top=0;left=0;bottom=0;right=0;pointerEvents=1;fontSize=16;" vertex="1" parent="QPCRG1O05miaiuswWdQy-158">
          <mxGeometry x="238" width="106" height="40" as="geometry">
            <mxRectangle width="106" height="40" as="alternateBounds" />
          </mxGeometry>
        </mxCell>
        <mxCell id="QPCRG1O05miaiuswWdQy-161" value="" style="shape=partialRectangle;html=1;whiteSpace=wrap;connectable=0;strokeColor=inherit;overflow=hidden;fillColor=none;top=0;left=0;bottom=0;right=0;pointerEvents=1;fontSize=16;" vertex="1" parent="QPCRG1O05miaiuswWdQy-158">
          <mxGeometry x="344" width="146" height="40" as="geometry">
            <mxRectangle width="146" height="40" as="alternateBounds" />
          </mxGeometry>
        </mxCell>
        <mxCell id="eYtaGiSR5ny6Jgzyoth1-7" style="shape=partialRectangle;html=1;whiteSpace=wrap;connectable=0;strokeColor=inherit;overflow=hidden;fillColor=none;top=0;left=0;bottom=0;right=0;pointerEvents=1;fontSize=16;" vertex="1" parent="QPCRG1O05miaiuswWdQy-158">
          <mxGeometry x="490" width="147" height="40" as="geometry">
            <mxRectangle width="147" height="40" as="alternateBounds" />
          </mxGeometry>
        </mxCell>
        <mxCell id="eYtaGiSR5ny6Jgzyoth1-13" style="shape=partialRectangle;html=1;whiteSpace=wrap;connectable=0;strokeColor=inherit;overflow=hidden;fillColor=none;top=0;left=0;bottom=0;right=0;pointerEvents=1;fontSize=16;" vertex="1" parent="QPCRG1O05miaiuswWdQy-158">
          <mxGeometry x="637" width="147" height="40" as="geometry">
            <mxRectangle width="147" height="40" as="alternateBounds" />
          </mxGeometry>
        </mxCell>
        <mxCell id="QPCRG1O05miaiuswWdQy-162" value="" style="shape=tableRow;horizontal=0;startSize=0;swimlaneHead=0;swimlaneBody=0;strokeColor=inherit;top=0;left=0;bottom=0;right=0;collapsible=0;dropTarget=0;fillColor=none;points=[[0,0.5],[1,0.5]];portConstraint=eastwest;fontSize=16;" vertex="1" parent="QPCRG1O05miaiuswWdQy-153">
          <mxGeometry y="110" width="784" height="40" as="geometry" />
        </mxCell>
        <mxCell id="QPCRG1O05miaiuswWdQy-163" value="" style="shape=partialRectangle;html=1;whiteSpace=wrap;connectable=0;strokeColor=inherit;overflow=hidden;fillColor=none;top=0;left=0;bottom=0;right=0;pointerEvents=1;fontSize=16;" vertex="1" parent="QPCRG1O05miaiuswWdQy-162">
          <mxGeometry width="238" height="40" as="geometry">
            <mxRectangle width="238" height="40" as="alternateBounds" />
          </mxGeometry>
        </mxCell>
        <mxCell id="QPCRG1O05miaiuswWdQy-164" value="" style="shape=partialRectangle;html=1;whiteSpace=wrap;connectable=0;strokeColor=inherit;overflow=hidden;fillColor=none;top=0;left=0;bottom=0;right=0;pointerEvents=1;fontSize=16;" vertex="1" parent="QPCRG1O05miaiuswWdQy-162">
          <mxGeometry x="238" width="106" height="40" as="geometry">
            <mxRectangle width="106" height="40" as="alternateBounds" />
          </mxGeometry>
        </mxCell>
        <mxCell id="QPCRG1O05miaiuswWdQy-165" value="" style="shape=partialRectangle;html=1;whiteSpace=wrap;connectable=0;strokeColor=inherit;overflow=hidden;fillColor=none;top=0;left=0;bottom=0;right=0;pointerEvents=1;fontSize=16;" vertex="1" parent="QPCRG1O05miaiuswWdQy-162">
          <mxGeometry x="344" width="146" height="40" as="geometry">
            <mxRectangle width="146" height="40" as="alternateBounds" />
          </mxGeometry>
        </mxCell>
        <mxCell id="eYtaGiSR5ny6Jgzyoth1-8" style="shape=partialRectangle;html=1;whiteSpace=wrap;connectable=0;strokeColor=inherit;overflow=hidden;fillColor=none;top=0;left=0;bottom=0;right=0;pointerEvents=1;fontSize=16;" vertex="1" parent="QPCRG1O05miaiuswWdQy-162">
          <mxGeometry x="490" width="147" height="40" as="geometry">
            <mxRectangle width="147" height="40" as="alternateBounds" />
          </mxGeometry>
        </mxCell>
        <mxCell id="eYtaGiSR5ny6Jgzyoth1-14" style="shape=partialRectangle;html=1;whiteSpace=wrap;connectable=0;strokeColor=inherit;overflow=hidden;fillColor=none;top=0;left=0;bottom=0;right=0;pointerEvents=1;fontSize=16;" vertex="1" parent="QPCRG1O05miaiuswWdQy-162">
          <mxGeometry x="637" width="147" height="40" as="geometry">
            <mxRectangle width="147" height="40" as="alternateBounds" />
          </mxGeometry>
        </mxCell>
        <mxCell id="QPCRG1O05miaiuswWdQy-166" style="shape=tableRow;horizontal=0;startSize=0;swimlaneHead=0;swimlaneBody=0;strokeColor=inherit;top=0;left=0;bottom=0;right=0;collapsible=0;dropTarget=0;fillColor=none;points=[[0,0.5],[1,0.5]];portConstraint=eastwest;fontSize=16;" vertex="1" parent="QPCRG1O05miaiuswWdQy-153">
          <mxGeometry y="150" width="784" height="40" as="geometry" />
        </mxCell>
        <mxCell id="QPCRG1O05miaiuswWdQy-167" style="shape=partialRectangle;html=1;whiteSpace=wrap;connectable=0;strokeColor=inherit;overflow=hidden;fillColor=none;top=0;left=0;bottom=0;right=0;pointerEvents=1;fontSize=16;" vertex="1" parent="QPCRG1O05miaiuswWdQy-166">
          <mxGeometry width="238" height="40" as="geometry">
            <mxRectangle width="238" height="40" as="alternateBounds" />
          </mxGeometry>
        </mxCell>
        <mxCell id="QPCRG1O05miaiuswWdQy-168" style="shape=partialRectangle;html=1;whiteSpace=wrap;connectable=0;strokeColor=inherit;overflow=hidden;fillColor=none;top=0;left=0;bottom=0;right=0;pointerEvents=1;fontSize=16;" vertex="1" parent="QPCRG1O05miaiuswWdQy-166">
          <mxGeometry x="238" width="106" height="40" as="geometry">
            <mxRectangle width="106" height="40" as="alternateBounds" />
          </mxGeometry>
        </mxCell>
        <mxCell id="QPCRG1O05miaiuswWdQy-169" style="shape=partialRectangle;html=1;whiteSpace=wrap;connectable=0;strokeColor=inherit;overflow=hidden;fillColor=none;top=0;left=0;bottom=0;right=0;pointerEvents=1;fontSize=16;" vertex="1" parent="QPCRG1O05miaiuswWdQy-166">
          <mxGeometry x="344" width="146" height="40" as="geometry">
            <mxRectangle width="146" height="40" as="alternateBounds" />
          </mxGeometry>
        </mxCell>
        <mxCell id="eYtaGiSR5ny6Jgzyoth1-9" style="shape=partialRectangle;html=1;whiteSpace=wrap;connectable=0;strokeColor=inherit;overflow=hidden;fillColor=none;top=0;left=0;bottom=0;right=0;pointerEvents=1;fontSize=16;" vertex="1" parent="QPCRG1O05miaiuswWdQy-166">
          <mxGeometry x="490" width="147" height="40" as="geometry">
            <mxRectangle width="147" height="40" as="alternateBounds" />
          </mxGeometry>
        </mxCell>
        <mxCell id="eYtaGiSR5ny6Jgzyoth1-15" style="shape=partialRectangle;html=1;whiteSpace=wrap;connectable=0;strokeColor=inherit;overflow=hidden;fillColor=none;top=0;left=0;bottom=0;right=0;pointerEvents=1;fontSize=16;" vertex="1" parent="QPCRG1O05miaiuswWdQy-166">
          <mxGeometry x="637" width="147" height="40" as="geometry">
            <mxRectangle width="147" height="40" as="alternateBounds" />
          </mxGeometry>
        </mxCell>
        <mxCell id="QPCRG1O05miaiuswWdQy-170" style="shape=tableRow;horizontal=0;startSize=0;swimlaneHead=0;swimlaneBody=0;strokeColor=inherit;top=0;left=0;bottom=0;right=0;collapsible=0;dropTarget=0;fillColor=none;points=[[0,0.5],[1,0.5]];portConstraint=eastwest;fontSize=16;" vertex="1" parent="QPCRG1O05miaiuswWdQy-153">
          <mxGeometry y="190" width="784" height="40" as="geometry" />
        </mxCell>
        <mxCell id="QPCRG1O05miaiuswWdQy-171" style="shape=partialRectangle;html=1;whiteSpace=wrap;connectable=0;strokeColor=inherit;overflow=hidden;fillColor=none;top=0;left=0;bottom=0;right=0;pointerEvents=1;fontSize=16;" vertex="1" parent="QPCRG1O05miaiuswWdQy-170">
          <mxGeometry width="238" height="40" as="geometry">
            <mxRectangle width="238" height="40" as="alternateBounds" />
          </mxGeometry>
        </mxCell>
        <mxCell id="QPCRG1O05miaiuswWdQy-172" style="shape=partialRectangle;html=1;whiteSpace=wrap;connectable=0;strokeColor=inherit;overflow=hidden;fillColor=none;top=0;left=0;bottom=0;right=0;pointerEvents=1;fontSize=16;" vertex="1" parent="QPCRG1O05miaiuswWdQy-170">
          <mxGeometry x="238" width="106" height="40" as="geometry">
            <mxRectangle width="106" height="40" as="alternateBounds" />
          </mxGeometry>
        </mxCell>
        <mxCell id="QPCRG1O05miaiuswWdQy-173" style="shape=partialRectangle;html=1;whiteSpace=wrap;connectable=0;strokeColor=inherit;overflow=hidden;fillColor=none;top=0;left=0;bottom=0;right=0;pointerEvents=1;fontSize=16;" vertex="1" parent="QPCRG1O05miaiuswWdQy-170">
          <mxGeometry x="344" width="146" height="40" as="geometry">
            <mxRectangle width="146" height="40" as="alternateBounds" />
          </mxGeometry>
        </mxCell>
        <mxCell id="eYtaGiSR5ny6Jgzyoth1-10" style="shape=partialRectangle;html=1;whiteSpace=wrap;connectable=0;strokeColor=inherit;overflow=hidden;fillColor=none;top=0;left=0;bottom=0;right=0;pointerEvents=1;fontSize=16;" vertex="1" parent="QPCRG1O05miaiuswWdQy-170">
          <mxGeometry x="490" width="147" height="40" as="geometry">
            <mxRectangle width="147" height="40" as="alternateBounds" />
          </mxGeometry>
        </mxCell>
        <mxCell id="eYtaGiSR5ny6Jgzyoth1-16" style="shape=partialRectangle;html=1;whiteSpace=wrap;connectable=0;strokeColor=inherit;overflow=hidden;fillColor=none;top=0;left=0;bottom=0;right=0;pointerEvents=1;fontSize=16;" vertex="1" parent="QPCRG1O05miaiuswWdQy-170">
          <mxGeometry x="637" width="147" height="40" as="geometry">
            <mxRectangle width="147" height="40" as="alternateBounds" />
          </mxGeometry>
        </mxCell>
        <mxCell id="QPCRG1O05miaiuswWdQy-174" style="shape=tableRow;horizontal=0;startSize=0;swimlaneHead=0;swimlaneBody=0;strokeColor=inherit;top=0;left=0;bottom=0;right=0;collapsible=0;dropTarget=0;fillColor=none;points=[[0,0.5],[1,0.5]];portConstraint=eastwest;fontSize=16;" vertex="1" parent="QPCRG1O05miaiuswWdQy-153">
          <mxGeometry y="230" width="784" height="40" as="geometry" />
        </mxCell>
        <mxCell id="QPCRG1O05miaiuswWdQy-175" style="shape=partialRectangle;html=1;whiteSpace=wrap;connectable=0;strokeColor=inherit;overflow=hidden;fillColor=none;top=0;left=0;bottom=0;right=0;pointerEvents=1;fontSize=16;" vertex="1" parent="QPCRG1O05miaiuswWdQy-174">
          <mxGeometry width="238" height="40" as="geometry">
            <mxRectangle width="238" height="40" as="alternateBounds" />
          </mxGeometry>
        </mxCell>
        <mxCell id="QPCRG1O05miaiuswWdQy-176" style="shape=partialRectangle;html=1;whiteSpace=wrap;connectable=0;strokeColor=inherit;overflow=hidden;fillColor=none;top=0;left=0;bottom=0;right=0;pointerEvents=1;fontSize=16;" vertex="1" parent="QPCRG1O05miaiuswWdQy-174">
          <mxGeometry x="238" width="106" height="40" as="geometry">
            <mxRectangle width="106" height="40" as="alternateBounds" />
          </mxGeometry>
        </mxCell>
        <mxCell id="QPCRG1O05miaiuswWdQy-177" style="shape=partialRectangle;html=1;whiteSpace=wrap;connectable=0;strokeColor=inherit;overflow=hidden;fillColor=none;top=0;left=0;bottom=0;right=0;pointerEvents=1;fontSize=16;" vertex="1" parent="QPCRG1O05miaiuswWdQy-174">
          <mxGeometry x="344" width="146" height="40" as="geometry">
            <mxRectangle width="146" height="40" as="alternateBounds" />
          </mxGeometry>
        </mxCell>
        <mxCell id="eYtaGiSR5ny6Jgzyoth1-11" style="shape=partialRectangle;html=1;whiteSpace=wrap;connectable=0;strokeColor=inherit;overflow=hidden;fillColor=none;top=0;left=0;bottom=0;right=0;pointerEvents=1;fontSize=16;" vertex="1" parent="QPCRG1O05miaiuswWdQy-174">
          <mxGeometry x="490" width="147" height="40" as="geometry">
            <mxRectangle width="147" height="40" as="alternateBounds" />
          </mxGeometry>
        </mxCell>
        <mxCell id="eYtaGiSR5ny6Jgzyoth1-17" style="shape=partialRectangle;html=1;whiteSpace=wrap;connectable=0;strokeColor=inherit;overflow=hidden;fillColor=none;top=0;left=0;bottom=0;right=0;pointerEvents=1;fontSize=16;" vertex="1" parent="QPCRG1O05miaiuswWdQy-174">
          <mxGeometry x="637" width="147" height="40" as="geometry">
            <mxRectangle width="147" height="40" as="alternateBounds" />
          </mxGeometry>
        </mxCell>
      </root>
    </mxGraphModel>
  </diagram>
  <diagram name="User Details" id="bogUfTW3W6Us3sXrwusx">
    <mxGraphModel dx="2868" dy="1609" grid="0" gridSize="10" guides="1" tooltips="1" connect="1" arrows="1" fold="1" page="0" pageScale="1" pageWidth="850" pageHeight="1100" math="0" shadow="0">
      <root>
        <mxCell id="TGxnWepOW30YtiNtVAGb-0" />
        <mxCell id="TGxnWepOW30YtiNtVAGb-1" parent="TGxnWepOW30YtiNtVAGb-0" />
        <mxCell id="TGxnWepOW30YtiNtVAGb-2" value="Vertical Container" style="swimlane;whiteSpace=wrap;html=1;sketch=1;curveFitting=1;jiggle=2;fontFamily=Architects Daughter;" vertex="1" parent="TGxnWepOW30YtiNtVAGb-1">
          <mxGeometry x="-584" y="-84" width="1535" height="703" as="geometry" />
        </mxCell>
        <mxCell id="TGxnWepOW30YtiNtVAGb-3" value="User List" style="shape=table;startSize=30;container=1;collapsible=0;childLayout=tableLayout;strokeColor=default;fontSize=16;sketch=1;curveFitting=1;jiggle=2;fontFamily=Architects Daughter;" vertex="1" parent="TGxnWepOW30YtiNtVAGb-2">
          <mxGeometry x="38" y="326" width="649" height="348" as="geometry" />
        </mxCell>
        <mxCell id="TGxnWepOW30YtiNtVAGb-4" value="" style="shape=tableRow;horizontal=0;startSize=0;swimlaneHead=0;swimlaneBody=0;strokeColor=inherit;top=0;left=0;bottom=0;right=0;collapsible=0;dropTarget=0;fillColor=none;points=[[0,0.5],[1,0.5]];portConstraint=eastwest;fontSize=16;" vertex="1" parent="TGxnWepOW30YtiNtVAGb-3">
          <mxGeometry y="30" width="649" height="35" as="geometry" />
        </mxCell>
        <mxCell id="TGxnWepOW30YtiNtVAGb-5" value="User" style="shape=partialRectangle;html=1;whiteSpace=wrap;connectable=0;strokeColor=inherit;overflow=hidden;fillColor=none;top=0;left=0;bottom=0;right=0;pointerEvents=1;fontSize=16;" vertex="1" parent="TGxnWepOW30YtiNtVAGb-4">
          <mxGeometry width="268" height="35" as="geometry">
            <mxRectangle width="268" height="35" as="alternateBounds" />
          </mxGeometry>
        </mxCell>
        <mxCell id="TGxnWepOW30YtiNtVAGb-6" value="Dept" style="shape=partialRectangle;html=1;whiteSpace=wrap;connectable=0;strokeColor=inherit;overflow=hidden;fillColor=none;top=0;left=0;bottom=0;right=0;pointerEvents=1;fontSize=16;" vertex="1" parent="TGxnWepOW30YtiNtVAGb-4">
          <mxGeometry x="268" width="110" height="35" as="geometry">
            <mxRectangle width="110" height="35" as="alternateBounds" />
          </mxGeometry>
        </mxCell>
        <mxCell id="TGxnWepOW30YtiNtVAGb-7" value="Access Count" style="shape=partialRectangle;html=1;whiteSpace=wrap;connectable=0;strokeColor=inherit;overflow=hidden;fillColor=none;top=0;left=0;bottom=0;right=0;pointerEvents=1;fontSize=16;" vertex="1" parent="TGxnWepOW30YtiNtVAGb-4">
          <mxGeometry x="378" width="103" height="35" as="geometry">
            <mxRectangle width="103" height="35" as="alternateBounds" />
          </mxGeometry>
        </mxCell>
        <mxCell id="TGxnWepOW30YtiNtVAGb-8" value="Last Accessed" style="shape=partialRectangle;html=1;whiteSpace=wrap;connectable=0;strokeColor=inherit;overflow=hidden;fillColor=none;top=0;left=0;bottom=0;right=0;pointerEvents=1;fontSize=16;" vertex="1" parent="TGxnWepOW30YtiNtVAGb-4">
          <mxGeometry x="481" width="168" height="35" as="geometry">
            <mxRectangle width="168" height="35" as="alternateBounds" />
          </mxGeometry>
        </mxCell>
        <mxCell id="TGxnWepOW30YtiNtVAGb-9" value="" style="shape=tableRow;horizontal=0;startSize=0;swimlaneHead=0;swimlaneBody=0;strokeColor=inherit;top=0;left=0;bottom=0;right=0;collapsible=0;dropTarget=0;fillColor=none;points=[[0,0.5],[1,0.5]];portConstraint=eastwest;fontSize=16;" vertex="1" parent="TGxnWepOW30YtiNtVAGb-3">
          <mxGeometry y="65" width="649" height="36" as="geometry" />
        </mxCell>
        <mxCell id="TGxnWepOW30YtiNtVAGb-10" value="" style="shape=partialRectangle;html=1;whiteSpace=wrap;connectable=0;strokeColor=inherit;overflow=hidden;fillColor=none;top=0;left=0;bottom=0;right=0;pointerEvents=1;fontSize=16;" vertex="1" parent="TGxnWepOW30YtiNtVAGb-9">
          <mxGeometry width="268" height="36" as="geometry">
            <mxRectangle width="268" height="36" as="alternateBounds" />
          </mxGeometry>
        </mxCell>
        <mxCell id="TGxnWepOW30YtiNtVAGb-11" value="" style="shape=partialRectangle;html=1;whiteSpace=wrap;connectable=0;strokeColor=inherit;overflow=hidden;fillColor=none;top=0;left=0;bottom=0;right=0;pointerEvents=1;fontSize=16;" vertex="1" parent="TGxnWepOW30YtiNtVAGb-9">
          <mxGeometry x="268" width="110" height="36" as="geometry">
            <mxRectangle width="110" height="36" as="alternateBounds" />
          </mxGeometry>
        </mxCell>
        <mxCell id="TGxnWepOW30YtiNtVAGb-12" value="" style="shape=partialRectangle;html=1;whiteSpace=wrap;connectable=0;strokeColor=inherit;overflow=hidden;fillColor=none;top=0;left=0;bottom=0;right=0;pointerEvents=1;fontSize=16;" vertex="1" parent="TGxnWepOW30YtiNtVAGb-9">
          <mxGeometry x="378" width="103" height="36" as="geometry">
            <mxRectangle width="103" height="36" as="alternateBounds" />
          </mxGeometry>
        </mxCell>
        <mxCell id="TGxnWepOW30YtiNtVAGb-13" style="shape=partialRectangle;html=1;whiteSpace=wrap;connectable=0;strokeColor=inherit;overflow=hidden;fillColor=none;top=0;left=0;bottom=0;right=0;pointerEvents=1;fontSize=16;" vertex="1" parent="TGxnWepOW30YtiNtVAGb-9">
          <mxGeometry x="481" width="168" height="36" as="geometry">
            <mxRectangle width="168" height="36" as="alternateBounds" />
          </mxGeometry>
        </mxCell>
        <mxCell id="TGxnWepOW30YtiNtVAGb-14" value="" style="shape=tableRow;horizontal=0;startSize=0;swimlaneHead=0;swimlaneBody=0;strokeColor=inherit;top=0;left=0;bottom=0;right=0;collapsible=0;dropTarget=0;fillColor=none;points=[[0,0.5],[1,0.5]];portConstraint=eastwest;fontSize=16;" vertex="1" parent="TGxnWepOW30YtiNtVAGb-3">
          <mxGeometry y="101" width="649" height="35" as="geometry" />
        </mxCell>
        <mxCell id="TGxnWepOW30YtiNtVAGb-15" value="" style="shape=partialRectangle;html=1;whiteSpace=wrap;connectable=0;strokeColor=inherit;overflow=hidden;fillColor=none;top=0;left=0;bottom=0;right=0;pointerEvents=1;fontSize=16;" vertex="1" parent="TGxnWepOW30YtiNtVAGb-14">
          <mxGeometry width="268" height="35" as="geometry">
            <mxRectangle width="268" height="35" as="alternateBounds" />
          </mxGeometry>
        </mxCell>
        <mxCell id="TGxnWepOW30YtiNtVAGb-16" value="" style="shape=partialRectangle;html=1;whiteSpace=wrap;connectable=0;strokeColor=inherit;overflow=hidden;fillColor=none;top=0;left=0;bottom=0;right=0;pointerEvents=1;fontSize=16;" vertex="1" parent="TGxnWepOW30YtiNtVAGb-14">
          <mxGeometry x="268" width="110" height="35" as="geometry">
            <mxRectangle width="110" height="35" as="alternateBounds" />
          </mxGeometry>
        </mxCell>
        <mxCell id="TGxnWepOW30YtiNtVAGb-17" value="" style="shape=partialRectangle;html=1;whiteSpace=wrap;connectable=0;strokeColor=inherit;overflow=hidden;fillColor=none;top=0;left=0;bottom=0;right=0;pointerEvents=1;fontSize=16;" vertex="1" parent="TGxnWepOW30YtiNtVAGb-14">
          <mxGeometry x="378" width="103" height="35" as="geometry">
            <mxRectangle width="103" height="35" as="alternateBounds" />
          </mxGeometry>
        </mxCell>
        <mxCell id="TGxnWepOW30YtiNtVAGb-18" style="shape=partialRectangle;html=1;whiteSpace=wrap;connectable=0;strokeColor=inherit;overflow=hidden;fillColor=none;top=0;left=0;bottom=0;right=0;pointerEvents=1;fontSize=16;" vertex="1" parent="TGxnWepOW30YtiNtVAGb-14">
          <mxGeometry x="481" width="168" height="35" as="geometry">
            <mxRectangle width="168" height="35" as="alternateBounds" />
          </mxGeometry>
        </mxCell>
        <mxCell id="TGxnWepOW30YtiNtVAGb-19" style="shape=tableRow;horizontal=0;startSize=0;swimlaneHead=0;swimlaneBody=0;strokeColor=inherit;top=0;left=0;bottom=0;right=0;collapsible=0;dropTarget=0;fillColor=none;points=[[0,0.5],[1,0.5]];portConstraint=eastwest;fontSize=16;" vertex="1" parent="TGxnWepOW30YtiNtVAGb-3">
          <mxGeometry y="136" width="649" height="35" as="geometry" />
        </mxCell>
        <mxCell id="TGxnWepOW30YtiNtVAGb-20" style="shape=partialRectangle;html=1;whiteSpace=wrap;connectable=0;strokeColor=inherit;overflow=hidden;fillColor=none;top=0;left=0;bottom=0;right=0;pointerEvents=1;fontSize=16;" vertex="1" parent="TGxnWepOW30YtiNtVAGb-19">
          <mxGeometry width="268" height="35" as="geometry">
            <mxRectangle width="268" height="35" as="alternateBounds" />
          </mxGeometry>
        </mxCell>
        <mxCell id="TGxnWepOW30YtiNtVAGb-21" style="shape=partialRectangle;html=1;whiteSpace=wrap;connectable=0;strokeColor=inherit;overflow=hidden;fillColor=none;top=0;left=0;bottom=0;right=0;pointerEvents=1;fontSize=16;" vertex="1" parent="TGxnWepOW30YtiNtVAGb-19">
          <mxGeometry x="268" width="110" height="35" as="geometry">
            <mxRectangle width="110" height="35" as="alternateBounds" />
          </mxGeometry>
        </mxCell>
        <mxCell id="TGxnWepOW30YtiNtVAGb-22" style="shape=partialRectangle;html=1;whiteSpace=wrap;connectable=0;strokeColor=inherit;overflow=hidden;fillColor=none;top=0;left=0;bottom=0;right=0;pointerEvents=1;fontSize=16;" vertex="1" parent="TGxnWepOW30YtiNtVAGb-19">
          <mxGeometry x="378" width="103" height="35" as="geometry">
            <mxRectangle width="103" height="35" as="alternateBounds" />
          </mxGeometry>
        </mxCell>
        <mxCell id="TGxnWepOW30YtiNtVAGb-23" style="shape=partialRectangle;html=1;whiteSpace=wrap;connectable=0;strokeColor=inherit;overflow=hidden;fillColor=none;top=0;left=0;bottom=0;right=0;pointerEvents=1;fontSize=16;" vertex="1" parent="TGxnWepOW30YtiNtVAGb-19">
          <mxGeometry x="481" width="168" height="35" as="geometry">
            <mxRectangle width="168" height="35" as="alternateBounds" />
          </mxGeometry>
        </mxCell>
        <mxCell id="TGxnWepOW30YtiNtVAGb-24" style="shape=tableRow;horizontal=0;startSize=0;swimlaneHead=0;swimlaneBody=0;strokeColor=inherit;top=0;left=0;bottom=0;right=0;collapsible=0;dropTarget=0;fillColor=none;points=[[0,0.5],[1,0.5]];portConstraint=eastwest;fontSize=16;" vertex="1" parent="TGxnWepOW30YtiNtVAGb-3">
          <mxGeometry y="171" width="649" height="36" as="geometry" />
        </mxCell>
        <mxCell id="TGxnWepOW30YtiNtVAGb-25" style="shape=partialRectangle;html=1;whiteSpace=wrap;connectable=0;strokeColor=inherit;overflow=hidden;fillColor=none;top=0;left=0;bottom=0;right=0;pointerEvents=1;fontSize=16;" vertex="1" parent="TGxnWepOW30YtiNtVAGb-24">
          <mxGeometry width="268" height="36" as="geometry">
            <mxRectangle width="268" height="36" as="alternateBounds" />
          </mxGeometry>
        </mxCell>
        <mxCell id="TGxnWepOW30YtiNtVAGb-26" style="shape=partialRectangle;html=1;whiteSpace=wrap;connectable=0;strokeColor=inherit;overflow=hidden;fillColor=none;top=0;left=0;bottom=0;right=0;pointerEvents=1;fontSize=16;" vertex="1" parent="TGxnWepOW30YtiNtVAGb-24">
          <mxGeometry x="268" width="110" height="36" as="geometry">
            <mxRectangle width="110" height="36" as="alternateBounds" />
          </mxGeometry>
        </mxCell>
        <mxCell id="TGxnWepOW30YtiNtVAGb-27" style="shape=partialRectangle;html=1;whiteSpace=wrap;connectable=0;strokeColor=inherit;overflow=hidden;fillColor=none;top=0;left=0;bottom=0;right=0;pointerEvents=1;fontSize=16;" vertex="1" parent="TGxnWepOW30YtiNtVAGb-24">
          <mxGeometry x="378" width="103" height="36" as="geometry">
            <mxRectangle width="103" height="36" as="alternateBounds" />
          </mxGeometry>
        </mxCell>
        <mxCell id="TGxnWepOW30YtiNtVAGb-28" style="shape=partialRectangle;html=1;whiteSpace=wrap;connectable=0;strokeColor=inherit;overflow=hidden;fillColor=none;top=0;left=0;bottom=0;right=0;pointerEvents=1;fontSize=16;" vertex="1" parent="TGxnWepOW30YtiNtVAGb-24">
          <mxGeometry x="481" width="168" height="36" as="geometry">
            <mxRectangle width="168" height="36" as="alternateBounds" />
          </mxGeometry>
        </mxCell>
        <mxCell id="TGxnWepOW30YtiNtVAGb-29" style="shape=tableRow;horizontal=0;startSize=0;swimlaneHead=0;swimlaneBody=0;strokeColor=inherit;top=0;left=0;bottom=0;right=0;collapsible=0;dropTarget=0;fillColor=none;points=[[0,0.5],[1,0.5]];portConstraint=eastwest;fontSize=16;" vertex="1" parent="TGxnWepOW30YtiNtVAGb-3">
          <mxGeometry y="207" width="649" height="35" as="geometry" />
        </mxCell>
        <mxCell id="TGxnWepOW30YtiNtVAGb-30" style="shape=partialRectangle;html=1;whiteSpace=wrap;connectable=0;strokeColor=inherit;overflow=hidden;fillColor=none;top=0;left=0;bottom=0;right=0;pointerEvents=1;fontSize=16;" vertex="1" parent="TGxnWepOW30YtiNtVAGb-29">
          <mxGeometry width="268" height="35" as="geometry">
            <mxRectangle width="268" height="35" as="alternateBounds" />
          </mxGeometry>
        </mxCell>
        <mxCell id="TGxnWepOW30YtiNtVAGb-31" style="shape=partialRectangle;html=1;whiteSpace=wrap;connectable=0;strokeColor=inherit;overflow=hidden;fillColor=none;top=0;left=0;bottom=0;right=0;pointerEvents=1;fontSize=16;" vertex="1" parent="TGxnWepOW30YtiNtVAGb-29">
          <mxGeometry x="268" width="110" height="35" as="geometry">
            <mxRectangle width="110" height="35" as="alternateBounds" />
          </mxGeometry>
        </mxCell>
        <mxCell id="TGxnWepOW30YtiNtVAGb-32" style="shape=partialRectangle;html=1;whiteSpace=wrap;connectable=0;strokeColor=inherit;overflow=hidden;fillColor=none;top=0;left=0;bottom=0;right=0;pointerEvents=1;fontSize=16;" vertex="1" parent="TGxnWepOW30YtiNtVAGb-29">
          <mxGeometry x="378" width="103" height="35" as="geometry">
            <mxRectangle width="103" height="35" as="alternateBounds" />
          </mxGeometry>
        </mxCell>
        <mxCell id="TGxnWepOW30YtiNtVAGb-33" style="shape=partialRectangle;html=1;whiteSpace=wrap;connectable=0;strokeColor=inherit;overflow=hidden;fillColor=none;top=0;left=0;bottom=0;right=0;pointerEvents=1;fontSize=16;" vertex="1" parent="TGxnWepOW30YtiNtVAGb-29">
          <mxGeometry x="481" width="168" height="35" as="geometry">
            <mxRectangle width="168" height="35" as="alternateBounds" />
          </mxGeometry>
        </mxCell>
        <mxCell id="TGxnWepOW30YtiNtVAGb-34" style="shape=tableRow;horizontal=0;startSize=0;swimlaneHead=0;swimlaneBody=0;strokeColor=inherit;top=0;left=0;bottom=0;right=0;collapsible=0;dropTarget=0;fillColor=none;points=[[0,0.5],[1,0.5]];portConstraint=eastwest;fontSize=16;" vertex="1" parent="TGxnWepOW30YtiNtVAGb-3">
          <mxGeometry y="242" width="649" height="35" as="geometry" />
        </mxCell>
        <mxCell id="TGxnWepOW30YtiNtVAGb-35" style="shape=partialRectangle;html=1;whiteSpace=wrap;connectable=0;strokeColor=inherit;overflow=hidden;fillColor=none;top=0;left=0;bottom=0;right=0;pointerEvents=1;fontSize=16;" vertex="1" parent="TGxnWepOW30YtiNtVAGb-34">
          <mxGeometry width="268" height="35" as="geometry">
            <mxRectangle width="268" height="35" as="alternateBounds" />
          </mxGeometry>
        </mxCell>
        <mxCell id="TGxnWepOW30YtiNtVAGb-36" style="shape=partialRectangle;html=1;whiteSpace=wrap;connectable=0;strokeColor=inherit;overflow=hidden;fillColor=none;top=0;left=0;bottom=0;right=0;pointerEvents=1;fontSize=16;" vertex="1" parent="TGxnWepOW30YtiNtVAGb-34">
          <mxGeometry x="268" width="110" height="35" as="geometry">
            <mxRectangle width="110" height="35" as="alternateBounds" />
          </mxGeometry>
        </mxCell>
        <mxCell id="TGxnWepOW30YtiNtVAGb-37" style="shape=partialRectangle;html=1;whiteSpace=wrap;connectable=0;strokeColor=inherit;overflow=hidden;fillColor=none;top=0;left=0;bottom=0;right=0;pointerEvents=1;fontSize=16;" vertex="1" parent="TGxnWepOW30YtiNtVAGb-34">
          <mxGeometry x="378" width="103" height="35" as="geometry">
            <mxRectangle width="103" height="35" as="alternateBounds" />
          </mxGeometry>
        </mxCell>
        <mxCell id="TGxnWepOW30YtiNtVAGb-38" style="shape=partialRectangle;html=1;whiteSpace=wrap;connectable=0;strokeColor=inherit;overflow=hidden;fillColor=none;top=0;left=0;bottom=0;right=0;pointerEvents=1;fontSize=16;" vertex="1" parent="TGxnWepOW30YtiNtVAGb-34">
          <mxGeometry x="481" width="168" height="35" as="geometry">
            <mxRectangle width="168" height="35" as="alternateBounds" />
          </mxGeometry>
        </mxCell>
        <mxCell id="TGxnWepOW30YtiNtVAGb-39" style="shape=tableRow;horizontal=0;startSize=0;swimlaneHead=0;swimlaneBody=0;strokeColor=inherit;top=0;left=0;bottom=0;right=0;collapsible=0;dropTarget=0;fillColor=none;points=[[0,0.5],[1,0.5]];portConstraint=eastwest;fontSize=16;" vertex="1" parent="TGxnWepOW30YtiNtVAGb-3">
          <mxGeometry y="277" width="649" height="36" as="geometry" />
        </mxCell>
        <mxCell id="TGxnWepOW30YtiNtVAGb-40" style="shape=partialRectangle;html=1;whiteSpace=wrap;connectable=0;strokeColor=inherit;overflow=hidden;fillColor=none;top=0;left=0;bottom=0;right=0;pointerEvents=1;fontSize=16;" vertex="1" parent="TGxnWepOW30YtiNtVAGb-39">
          <mxGeometry width="268" height="36" as="geometry">
            <mxRectangle width="268" height="36" as="alternateBounds" />
          </mxGeometry>
        </mxCell>
        <mxCell id="TGxnWepOW30YtiNtVAGb-41" style="shape=partialRectangle;html=1;whiteSpace=wrap;connectable=0;strokeColor=inherit;overflow=hidden;fillColor=none;top=0;left=0;bottom=0;right=0;pointerEvents=1;fontSize=16;" vertex="1" parent="TGxnWepOW30YtiNtVAGb-39">
          <mxGeometry x="268" width="110" height="36" as="geometry">
            <mxRectangle width="110" height="36" as="alternateBounds" />
          </mxGeometry>
        </mxCell>
        <mxCell id="TGxnWepOW30YtiNtVAGb-42" style="shape=partialRectangle;html=1;whiteSpace=wrap;connectable=0;strokeColor=inherit;overflow=hidden;fillColor=none;top=0;left=0;bottom=0;right=0;pointerEvents=1;fontSize=16;" vertex="1" parent="TGxnWepOW30YtiNtVAGb-39">
          <mxGeometry x="378" width="103" height="36" as="geometry">
            <mxRectangle width="103" height="36" as="alternateBounds" />
          </mxGeometry>
        </mxCell>
        <mxCell id="TGxnWepOW30YtiNtVAGb-43" style="shape=partialRectangle;html=1;whiteSpace=wrap;connectable=0;strokeColor=inherit;overflow=hidden;fillColor=none;top=0;left=0;bottom=0;right=0;pointerEvents=1;fontSize=16;" vertex="1" parent="TGxnWepOW30YtiNtVAGb-39">
          <mxGeometry x="481" width="168" height="36" as="geometry">
            <mxRectangle width="168" height="36" as="alternateBounds" />
          </mxGeometry>
        </mxCell>
        <mxCell id="TGxnWepOW30YtiNtVAGb-44" style="shape=tableRow;horizontal=0;startSize=0;swimlaneHead=0;swimlaneBody=0;strokeColor=inherit;top=0;left=0;bottom=0;right=0;collapsible=0;dropTarget=0;fillColor=none;points=[[0,0.5],[1,0.5]];portConstraint=eastwest;fontSize=16;" vertex="1" parent="TGxnWepOW30YtiNtVAGb-3">
          <mxGeometry y="313" width="649" height="35" as="geometry" />
        </mxCell>
        <mxCell id="TGxnWepOW30YtiNtVAGb-45" style="shape=partialRectangle;html=1;whiteSpace=wrap;connectable=0;strokeColor=inherit;overflow=hidden;fillColor=none;top=0;left=0;bottom=0;right=0;pointerEvents=1;fontSize=16;" vertex="1" parent="TGxnWepOW30YtiNtVAGb-44">
          <mxGeometry width="268" height="35" as="geometry">
            <mxRectangle width="268" height="35" as="alternateBounds" />
          </mxGeometry>
        </mxCell>
        <mxCell id="TGxnWepOW30YtiNtVAGb-46" style="shape=partialRectangle;html=1;whiteSpace=wrap;connectable=0;strokeColor=inherit;overflow=hidden;fillColor=none;top=0;left=0;bottom=0;right=0;pointerEvents=1;fontSize=16;" vertex="1" parent="TGxnWepOW30YtiNtVAGb-44">
          <mxGeometry x="268" width="110" height="35" as="geometry">
            <mxRectangle width="110" height="35" as="alternateBounds" />
          </mxGeometry>
        </mxCell>
        <mxCell id="TGxnWepOW30YtiNtVAGb-47" style="shape=partialRectangle;html=1;whiteSpace=wrap;connectable=0;strokeColor=inherit;overflow=hidden;fillColor=none;top=0;left=0;bottom=0;right=0;pointerEvents=1;fontSize=16;" vertex="1" parent="TGxnWepOW30YtiNtVAGb-44">
          <mxGeometry x="378" width="103" height="35" as="geometry">
            <mxRectangle width="103" height="35" as="alternateBounds" />
          </mxGeometry>
        </mxCell>
        <mxCell id="TGxnWepOW30YtiNtVAGb-48" style="shape=partialRectangle;html=1;whiteSpace=wrap;connectable=0;strokeColor=inherit;overflow=hidden;fillColor=none;top=0;left=0;bottom=0;right=0;pointerEvents=1;fontSize=16;" vertex="1" parent="TGxnWepOW30YtiNtVAGb-44">
          <mxGeometry x="481" width="168" height="35" as="geometry">
            <mxRectangle width="168" height="35" as="alternateBounds" />
          </mxGeometry>
        </mxCell>
        <mxCell id="TGxnWepOW30YtiNtVAGb-79" value="Report List" style="shape=table;startSize=30;container=1;collapsible=0;childLayout=tableLayout;strokeColor=default;fontSize=16;sketch=1;curveFitting=1;jiggle=2;fontFamily=Architects Daughter;" vertex="1" parent="TGxnWepOW30YtiNtVAGb-2">
          <mxGeometry x="719" y="46" width="787" height="309" as="geometry" />
        </mxCell>
        <mxCell id="TGxnWepOW30YtiNtVAGb-80" value="" style="shape=tableRow;horizontal=0;startSize=0;swimlaneHead=0;swimlaneBody=0;strokeColor=inherit;top=0;left=0;bottom=0;right=0;collapsible=0;dropTarget=0;fillColor=none;points=[[0,0.5],[1,0.5]];portConstraint=eastwest;fontSize=16;" vertex="1" parent="TGxnWepOW30YtiNtVAGb-79">
          <mxGeometry y="30" width="787" height="35" as="geometry" />
        </mxCell>
        <mxCell id="TGxnWepOW30YtiNtVAGb-81" value="Report Name" style="shape=partialRectangle;html=1;whiteSpace=wrap;connectable=0;strokeColor=inherit;overflow=hidden;fillColor=none;top=0;left=0;bottom=0;right=0;pointerEvents=1;fontSize=16;" vertex="1" parent="TGxnWepOW30YtiNtVAGb-80">
          <mxGeometry width="344" height="35" as="geometry">
            <mxRectangle width="344" height="35" as="alternateBounds" />
          </mxGeometry>
        </mxCell>
        <mxCell id="TGxnWepOW30YtiNtVAGb-82" value="Access Count" style="shape=partialRectangle;html=1;whiteSpace=wrap;connectable=0;strokeColor=inherit;overflow=hidden;fillColor=none;top=0;left=0;bottom=0;right=0;pointerEvents=1;fontSize=16;" vertex="1" parent="TGxnWepOW30YtiNtVAGb-80">
          <mxGeometry x="344" width="165" height="35" as="geometry">
            <mxRectangle width="165" height="35" as="alternateBounds" />
          </mxGeometry>
        </mxCell>
        <mxCell id="TGxnWepOW30YtiNtVAGb-83" value="Last Accessed" style="shape=partialRectangle;html=1;whiteSpace=wrap;connectable=0;strokeColor=inherit;overflow=hidden;fillColor=none;top=0;left=0;bottom=0;right=0;pointerEvents=1;fontSize=16;" vertex="1" parent="TGxnWepOW30YtiNtVAGb-80">
          <mxGeometry x="509" width="133" height="35" as="geometry">
            <mxRectangle width="133" height="35" as="alternateBounds" />
          </mxGeometry>
        </mxCell>
        <mxCell id="TGxnWepOW30YtiNtVAGb-84" value="Report Path" style="shape=partialRectangle;html=1;whiteSpace=wrap;connectable=0;strokeColor=inherit;overflow=hidden;fillColor=none;top=0;left=0;bottom=0;right=0;pointerEvents=1;fontSize=16;" vertex="1" parent="TGxnWepOW30YtiNtVAGb-80">
          <mxGeometry x="642" width="145" height="35" as="geometry">
            <mxRectangle width="145" height="35" as="alternateBounds" />
          </mxGeometry>
        </mxCell>
        <mxCell id="TGxnWepOW30YtiNtVAGb-85" value="" style="shape=tableRow;horizontal=0;startSize=0;swimlaneHead=0;swimlaneBody=0;strokeColor=inherit;top=0;left=0;bottom=0;right=0;collapsible=0;dropTarget=0;fillColor=none;points=[[0,0.5],[1,0.5]];portConstraint=eastwest;fontSize=16;" vertex="1" parent="TGxnWepOW30YtiNtVAGb-79">
          <mxGeometry y="65" width="787" height="35" as="geometry" />
        </mxCell>
        <mxCell id="TGxnWepOW30YtiNtVAGb-86" value="" style="shape=partialRectangle;html=1;whiteSpace=wrap;connectable=0;strokeColor=inherit;overflow=hidden;fillColor=none;top=0;left=0;bottom=0;right=0;pointerEvents=1;fontSize=16;" vertex="1" parent="TGxnWepOW30YtiNtVAGb-85">
          <mxGeometry width="344" height="35" as="geometry">
            <mxRectangle width="344" height="35" as="alternateBounds" />
          </mxGeometry>
        </mxCell>
        <mxCell id="TGxnWepOW30YtiNtVAGb-87" value="" style="shape=partialRectangle;html=1;whiteSpace=wrap;connectable=0;strokeColor=inherit;overflow=hidden;fillColor=none;top=0;left=0;bottom=0;right=0;pointerEvents=1;fontSize=16;" vertex="1" parent="TGxnWepOW30YtiNtVAGb-85">
          <mxGeometry x="344" width="165" height="35" as="geometry">
            <mxRectangle width="165" height="35" as="alternateBounds" />
          </mxGeometry>
        </mxCell>
        <mxCell id="TGxnWepOW30YtiNtVAGb-88" value="" style="shape=partialRectangle;html=1;whiteSpace=wrap;connectable=0;strokeColor=inherit;overflow=hidden;fillColor=none;top=0;left=0;bottom=0;right=0;pointerEvents=1;fontSize=16;" vertex="1" parent="TGxnWepOW30YtiNtVAGb-85">
          <mxGeometry x="509" width="133" height="35" as="geometry">
            <mxRectangle width="133" height="35" as="alternateBounds" />
          </mxGeometry>
        </mxCell>
        <mxCell id="TGxnWepOW30YtiNtVAGb-89" style="shape=partialRectangle;html=1;whiteSpace=wrap;connectable=0;strokeColor=inherit;overflow=hidden;fillColor=none;top=0;left=0;bottom=0;right=0;pointerEvents=1;fontSize=16;" vertex="1" parent="TGxnWepOW30YtiNtVAGb-85">
          <mxGeometry x="642" width="145" height="35" as="geometry">
            <mxRectangle width="145" height="35" as="alternateBounds" />
          </mxGeometry>
        </mxCell>
        <mxCell id="TGxnWepOW30YtiNtVAGb-90" value="" style="shape=tableRow;horizontal=0;startSize=0;swimlaneHead=0;swimlaneBody=0;strokeColor=inherit;top=0;left=0;bottom=0;right=0;collapsible=0;dropTarget=0;fillColor=none;points=[[0,0.5],[1,0.5]];portConstraint=eastwest;fontSize=16;" vertex="1" parent="TGxnWepOW30YtiNtVAGb-79">
          <mxGeometry y="100" width="787" height="35" as="geometry" />
        </mxCell>
        <mxCell id="TGxnWepOW30YtiNtVAGb-91" value="" style="shape=partialRectangle;html=1;whiteSpace=wrap;connectable=0;strokeColor=inherit;overflow=hidden;fillColor=none;top=0;left=0;bottom=0;right=0;pointerEvents=1;fontSize=16;" vertex="1" parent="TGxnWepOW30YtiNtVAGb-90">
          <mxGeometry width="344" height="35" as="geometry">
            <mxRectangle width="344" height="35" as="alternateBounds" />
          </mxGeometry>
        </mxCell>
        <mxCell id="TGxnWepOW30YtiNtVAGb-92" value="" style="shape=partialRectangle;html=1;whiteSpace=wrap;connectable=0;strokeColor=inherit;overflow=hidden;fillColor=none;top=0;left=0;bottom=0;right=0;pointerEvents=1;fontSize=16;" vertex="1" parent="TGxnWepOW30YtiNtVAGb-90">
          <mxGeometry x="344" width="165" height="35" as="geometry">
            <mxRectangle width="165" height="35" as="alternateBounds" />
          </mxGeometry>
        </mxCell>
        <mxCell id="TGxnWepOW30YtiNtVAGb-93" value="" style="shape=partialRectangle;html=1;whiteSpace=wrap;connectable=0;strokeColor=inherit;overflow=hidden;fillColor=none;top=0;left=0;bottom=0;right=0;pointerEvents=1;fontSize=16;" vertex="1" parent="TGxnWepOW30YtiNtVAGb-90">
          <mxGeometry x="509" width="133" height="35" as="geometry">
            <mxRectangle width="133" height="35" as="alternateBounds" />
          </mxGeometry>
        </mxCell>
        <mxCell id="TGxnWepOW30YtiNtVAGb-94" style="shape=partialRectangle;html=1;whiteSpace=wrap;connectable=0;strokeColor=inherit;overflow=hidden;fillColor=none;top=0;left=0;bottom=0;right=0;pointerEvents=1;fontSize=16;" vertex="1" parent="TGxnWepOW30YtiNtVAGb-90">
          <mxGeometry x="642" width="145" height="35" as="geometry">
            <mxRectangle width="145" height="35" as="alternateBounds" />
          </mxGeometry>
        </mxCell>
        <mxCell id="TGxnWepOW30YtiNtVAGb-95" style="shape=tableRow;horizontal=0;startSize=0;swimlaneHead=0;swimlaneBody=0;strokeColor=inherit;top=0;left=0;bottom=0;right=0;collapsible=0;dropTarget=0;fillColor=none;points=[[0,0.5],[1,0.5]];portConstraint=eastwest;fontSize=16;" vertex="1" parent="TGxnWepOW30YtiNtVAGb-79">
          <mxGeometry y="135" width="787" height="35" as="geometry" />
        </mxCell>
        <mxCell id="TGxnWepOW30YtiNtVAGb-96" style="shape=partialRectangle;html=1;whiteSpace=wrap;connectable=0;strokeColor=inherit;overflow=hidden;fillColor=none;top=0;left=0;bottom=0;right=0;pointerEvents=1;fontSize=16;" vertex="1" parent="TGxnWepOW30YtiNtVAGb-95">
          <mxGeometry width="344" height="35" as="geometry">
            <mxRectangle width="344" height="35" as="alternateBounds" />
          </mxGeometry>
        </mxCell>
        <mxCell id="TGxnWepOW30YtiNtVAGb-97" style="shape=partialRectangle;html=1;whiteSpace=wrap;connectable=0;strokeColor=inherit;overflow=hidden;fillColor=none;top=0;left=0;bottom=0;right=0;pointerEvents=1;fontSize=16;" vertex="1" parent="TGxnWepOW30YtiNtVAGb-95">
          <mxGeometry x="344" width="165" height="35" as="geometry">
            <mxRectangle width="165" height="35" as="alternateBounds" />
          </mxGeometry>
        </mxCell>
        <mxCell id="TGxnWepOW30YtiNtVAGb-98" style="shape=partialRectangle;html=1;whiteSpace=wrap;connectable=0;strokeColor=inherit;overflow=hidden;fillColor=none;top=0;left=0;bottom=0;right=0;pointerEvents=1;fontSize=16;" vertex="1" parent="TGxnWepOW30YtiNtVAGb-95">
          <mxGeometry x="509" width="133" height="35" as="geometry">
            <mxRectangle width="133" height="35" as="alternateBounds" />
          </mxGeometry>
        </mxCell>
        <mxCell id="TGxnWepOW30YtiNtVAGb-99" style="shape=partialRectangle;html=1;whiteSpace=wrap;connectable=0;strokeColor=inherit;overflow=hidden;fillColor=none;top=0;left=0;bottom=0;right=0;pointerEvents=1;fontSize=16;" vertex="1" parent="TGxnWepOW30YtiNtVAGb-95">
          <mxGeometry x="642" width="145" height="35" as="geometry">
            <mxRectangle width="145" height="35" as="alternateBounds" />
          </mxGeometry>
        </mxCell>
        <mxCell id="TGxnWepOW30YtiNtVAGb-100" style="shape=tableRow;horizontal=0;startSize=0;swimlaneHead=0;swimlaneBody=0;strokeColor=inherit;top=0;left=0;bottom=0;right=0;collapsible=0;dropTarget=0;fillColor=none;points=[[0,0.5],[1,0.5]];portConstraint=eastwest;fontSize=16;" vertex="1" parent="TGxnWepOW30YtiNtVAGb-79">
          <mxGeometry y="170" width="787" height="34" as="geometry" />
        </mxCell>
        <mxCell id="TGxnWepOW30YtiNtVAGb-101" style="shape=partialRectangle;html=1;whiteSpace=wrap;connectable=0;strokeColor=inherit;overflow=hidden;fillColor=none;top=0;left=0;bottom=0;right=0;pointerEvents=1;fontSize=16;" vertex="1" parent="TGxnWepOW30YtiNtVAGb-100">
          <mxGeometry width="344" height="34" as="geometry">
            <mxRectangle width="344" height="34" as="alternateBounds" />
          </mxGeometry>
        </mxCell>
        <mxCell id="TGxnWepOW30YtiNtVAGb-102" style="shape=partialRectangle;html=1;whiteSpace=wrap;connectable=0;strokeColor=inherit;overflow=hidden;fillColor=none;top=0;left=0;bottom=0;right=0;pointerEvents=1;fontSize=16;" vertex="1" parent="TGxnWepOW30YtiNtVAGb-100">
          <mxGeometry x="344" width="165" height="34" as="geometry">
            <mxRectangle width="165" height="34" as="alternateBounds" />
          </mxGeometry>
        </mxCell>
        <mxCell id="TGxnWepOW30YtiNtVAGb-103" style="shape=partialRectangle;html=1;whiteSpace=wrap;connectable=0;strokeColor=inherit;overflow=hidden;fillColor=none;top=0;left=0;bottom=0;right=0;pointerEvents=1;fontSize=16;" vertex="1" parent="TGxnWepOW30YtiNtVAGb-100">
          <mxGeometry x="509" width="133" height="34" as="geometry">
            <mxRectangle width="133" height="34" as="alternateBounds" />
          </mxGeometry>
        </mxCell>
        <mxCell id="TGxnWepOW30YtiNtVAGb-104" style="shape=partialRectangle;html=1;whiteSpace=wrap;connectable=0;strokeColor=inherit;overflow=hidden;fillColor=none;top=0;left=0;bottom=0;right=0;pointerEvents=1;fontSize=16;" vertex="1" parent="TGxnWepOW30YtiNtVAGb-100">
          <mxGeometry x="642" width="145" height="34" as="geometry">
            <mxRectangle width="145" height="34" as="alternateBounds" />
          </mxGeometry>
        </mxCell>
        <mxCell id="TGxnWepOW30YtiNtVAGb-105" style="shape=tableRow;horizontal=0;startSize=0;swimlaneHead=0;swimlaneBody=0;strokeColor=inherit;top=0;left=0;bottom=0;right=0;collapsible=0;dropTarget=0;fillColor=none;points=[[0,0.5],[1,0.5]];portConstraint=eastwest;fontSize=16;" vertex="1" parent="TGxnWepOW30YtiNtVAGb-79">
          <mxGeometry y="204" width="787" height="35" as="geometry" />
        </mxCell>
        <mxCell id="TGxnWepOW30YtiNtVAGb-106" style="shape=partialRectangle;html=1;whiteSpace=wrap;connectable=0;strokeColor=inherit;overflow=hidden;fillColor=none;top=0;left=0;bottom=0;right=0;pointerEvents=1;fontSize=16;" vertex="1" parent="TGxnWepOW30YtiNtVAGb-105">
          <mxGeometry width="344" height="35" as="geometry">
            <mxRectangle width="344" height="35" as="alternateBounds" />
          </mxGeometry>
        </mxCell>
        <mxCell id="TGxnWepOW30YtiNtVAGb-107" style="shape=partialRectangle;html=1;whiteSpace=wrap;connectable=0;strokeColor=inherit;overflow=hidden;fillColor=none;top=0;left=0;bottom=0;right=0;pointerEvents=1;fontSize=16;" vertex="1" parent="TGxnWepOW30YtiNtVAGb-105">
          <mxGeometry x="344" width="165" height="35" as="geometry">
            <mxRectangle width="165" height="35" as="alternateBounds" />
          </mxGeometry>
        </mxCell>
        <mxCell id="TGxnWepOW30YtiNtVAGb-108" style="shape=partialRectangle;html=1;whiteSpace=wrap;connectable=0;strokeColor=inherit;overflow=hidden;fillColor=none;top=0;left=0;bottom=0;right=0;pointerEvents=1;fontSize=16;" vertex="1" parent="TGxnWepOW30YtiNtVAGb-105">
          <mxGeometry x="509" width="133" height="35" as="geometry">
            <mxRectangle width="133" height="35" as="alternateBounds" />
          </mxGeometry>
        </mxCell>
        <mxCell id="TGxnWepOW30YtiNtVAGb-109" style="shape=partialRectangle;html=1;whiteSpace=wrap;connectable=0;strokeColor=inherit;overflow=hidden;fillColor=none;top=0;left=0;bottom=0;right=0;pointerEvents=1;fontSize=16;" vertex="1" parent="TGxnWepOW30YtiNtVAGb-105">
          <mxGeometry x="642" width="145" height="35" as="geometry">
            <mxRectangle width="145" height="35" as="alternateBounds" />
          </mxGeometry>
        </mxCell>
        <mxCell id="TGxnWepOW30YtiNtVAGb-110" style="shape=tableRow;horizontal=0;startSize=0;swimlaneHead=0;swimlaneBody=0;strokeColor=inherit;top=0;left=0;bottom=0;right=0;collapsible=0;dropTarget=0;fillColor=none;points=[[0,0.5],[1,0.5]];portConstraint=eastwest;fontSize=16;" vertex="1" parent="TGxnWepOW30YtiNtVAGb-79">
          <mxGeometry y="239" width="787" height="35" as="geometry" />
        </mxCell>
        <mxCell id="TGxnWepOW30YtiNtVAGb-111" style="shape=partialRectangle;html=1;whiteSpace=wrap;connectable=0;strokeColor=inherit;overflow=hidden;fillColor=none;top=0;left=0;bottom=0;right=0;pointerEvents=1;fontSize=16;" vertex="1" parent="TGxnWepOW30YtiNtVAGb-110">
          <mxGeometry width="344" height="35" as="geometry">
            <mxRectangle width="344" height="35" as="alternateBounds" />
          </mxGeometry>
        </mxCell>
        <mxCell id="TGxnWepOW30YtiNtVAGb-112" style="shape=partialRectangle;html=1;whiteSpace=wrap;connectable=0;strokeColor=inherit;overflow=hidden;fillColor=none;top=0;left=0;bottom=0;right=0;pointerEvents=1;fontSize=16;" vertex="1" parent="TGxnWepOW30YtiNtVAGb-110">
          <mxGeometry x="344" width="165" height="35" as="geometry">
            <mxRectangle width="165" height="35" as="alternateBounds" />
          </mxGeometry>
        </mxCell>
        <mxCell id="TGxnWepOW30YtiNtVAGb-113" style="shape=partialRectangle;html=1;whiteSpace=wrap;connectable=0;strokeColor=inherit;overflow=hidden;fillColor=none;top=0;left=0;bottom=0;right=0;pointerEvents=1;fontSize=16;" vertex="1" parent="TGxnWepOW30YtiNtVAGb-110">
          <mxGeometry x="509" width="133" height="35" as="geometry">
            <mxRectangle width="133" height="35" as="alternateBounds" />
          </mxGeometry>
        </mxCell>
        <mxCell id="TGxnWepOW30YtiNtVAGb-114" style="shape=partialRectangle;html=1;whiteSpace=wrap;connectable=0;strokeColor=inherit;overflow=hidden;fillColor=none;top=0;left=0;bottom=0;right=0;pointerEvents=1;fontSize=16;" vertex="1" parent="TGxnWepOW30YtiNtVAGb-110">
          <mxGeometry x="642" width="145" height="35" as="geometry">
            <mxRectangle width="145" height="35" as="alternateBounds" />
          </mxGeometry>
        </mxCell>
        <mxCell id="TGxnWepOW30YtiNtVAGb-115" style="shape=tableRow;horizontal=0;startSize=0;swimlaneHead=0;swimlaneBody=0;strokeColor=inherit;top=0;left=0;bottom=0;right=0;collapsible=0;dropTarget=0;fillColor=none;points=[[0,0.5],[1,0.5]];portConstraint=eastwest;fontSize=16;" vertex="1" parent="TGxnWepOW30YtiNtVAGb-79">
          <mxGeometry y="274" width="787" height="35" as="geometry" />
        </mxCell>
        <mxCell id="TGxnWepOW30YtiNtVAGb-116" style="shape=partialRectangle;html=1;whiteSpace=wrap;connectable=0;strokeColor=inherit;overflow=hidden;fillColor=none;top=0;left=0;bottom=0;right=0;pointerEvents=1;fontSize=16;" vertex="1" parent="TGxnWepOW30YtiNtVAGb-115">
          <mxGeometry width="344" height="35" as="geometry">
            <mxRectangle width="344" height="35" as="alternateBounds" />
          </mxGeometry>
        </mxCell>
        <mxCell id="TGxnWepOW30YtiNtVAGb-117" style="shape=partialRectangle;html=1;whiteSpace=wrap;connectable=0;strokeColor=inherit;overflow=hidden;fillColor=none;top=0;left=0;bottom=0;right=0;pointerEvents=1;fontSize=16;" vertex="1" parent="TGxnWepOW30YtiNtVAGb-115">
          <mxGeometry x="344" width="165" height="35" as="geometry">
            <mxRectangle width="165" height="35" as="alternateBounds" />
          </mxGeometry>
        </mxCell>
        <mxCell id="TGxnWepOW30YtiNtVAGb-118" style="shape=partialRectangle;html=1;whiteSpace=wrap;connectable=0;strokeColor=inherit;overflow=hidden;fillColor=none;top=0;left=0;bottom=0;right=0;pointerEvents=1;fontSize=16;" vertex="1" parent="TGxnWepOW30YtiNtVAGb-115">
          <mxGeometry x="509" width="133" height="35" as="geometry">
            <mxRectangle width="133" height="35" as="alternateBounds" />
          </mxGeometry>
        </mxCell>
        <mxCell id="TGxnWepOW30YtiNtVAGb-119" style="shape=partialRectangle;html=1;whiteSpace=wrap;connectable=0;strokeColor=inherit;overflow=hidden;fillColor=none;top=0;left=0;bottom=0;right=0;pointerEvents=1;fontSize=16;" vertex="1" parent="TGxnWepOW30YtiNtVAGb-115">
          <mxGeometry x="642" width="145" height="35" as="geometry">
            <mxRectangle width="145" height="35" as="alternateBounds" />
          </mxGeometry>
        </mxCell>
        <mxCell id="TGxnWepOW30YtiNtVAGb-120" value="Indiviual Access Log Record (All columns?)" style="shape=table;startSize=30;container=1;collapsible=0;childLayout=tableLayout;strokeColor=default;fontSize=16;sketch=1;curveFitting=1;jiggle=2;fontFamily=Architects Daughter;" vertex="1" parent="TGxnWepOW30YtiNtVAGb-2">
          <mxGeometry x="719" y="392" width="784" height="282" as="geometry" />
        </mxCell>
        <mxCell id="TGxnWepOW30YtiNtVAGb-121" value="" style="shape=tableRow;horizontal=0;startSize=0;swimlaneHead=0;swimlaneBody=0;strokeColor=inherit;top=0;left=0;bottom=0;right=0;collapsible=0;dropTarget=0;fillColor=none;points=[[0,0.5],[1,0.5]];portConstraint=eastwest;fontSize=16;" vertex="1" parent="TGxnWepOW30YtiNtVAGb-120">
          <mxGeometry y="30" width="784" height="42" as="geometry" />
        </mxCell>
        <mxCell id="TGxnWepOW30YtiNtVAGb-122" value="User" style="shape=partialRectangle;html=1;whiteSpace=wrap;connectable=0;strokeColor=inherit;overflow=hidden;fillColor=none;top=0;left=0;bottom=0;right=0;pointerEvents=1;fontSize=16;" vertex="1" parent="TGxnWepOW30YtiNtVAGb-121">
          <mxGeometry width="238" height="42" as="geometry">
            <mxRectangle width="238" height="42" as="alternateBounds" />
          </mxGeometry>
        </mxCell>
        <mxCell id="TGxnWepOW30YtiNtVAGb-123" value="Date" style="shape=partialRectangle;html=1;whiteSpace=wrap;connectable=0;strokeColor=inherit;overflow=hidden;fillColor=none;top=0;left=0;bottom=0;right=0;pointerEvents=1;fontSize=16;" vertex="1" parent="TGxnWepOW30YtiNtVAGb-121">
          <mxGeometry x="238" width="106" height="42" as="geometry">
            <mxRectangle width="106" height="42" as="alternateBounds" />
          </mxGeometry>
        </mxCell>
        <mxCell id="TGxnWepOW30YtiNtVAGb-124" value="Duration" style="shape=partialRectangle;html=1;whiteSpace=wrap;connectable=0;strokeColor=inherit;overflow=hidden;fillColor=none;top=0;left=0;bottom=0;right=0;pointerEvents=1;fontSize=16;" vertex="1" parent="TGxnWepOW30YtiNtVAGb-121">
          <mxGeometry x="344" width="146" height="42" as="geometry">
            <mxRectangle width="146" height="42" as="alternateBounds" />
          </mxGeometry>
        </mxCell>
        <mxCell id="TGxnWepOW30YtiNtVAGb-125" value="etc." style="shape=partialRectangle;html=1;whiteSpace=wrap;connectable=0;strokeColor=inherit;overflow=hidden;fillColor=none;top=0;left=0;bottom=0;right=0;pointerEvents=1;fontSize=16;" vertex="1" parent="TGxnWepOW30YtiNtVAGb-121">
          <mxGeometry x="490" width="147" height="42" as="geometry">
            <mxRectangle width="147" height="42" as="alternateBounds" />
          </mxGeometry>
        </mxCell>
        <mxCell id="TGxnWepOW30YtiNtVAGb-126" value="etc." style="shape=partialRectangle;html=1;whiteSpace=wrap;connectable=0;strokeColor=inherit;overflow=hidden;fillColor=none;top=0;left=0;bottom=0;right=0;pointerEvents=1;fontSize=16;" vertex="1" parent="TGxnWepOW30YtiNtVAGb-121">
          <mxGeometry x="637" width="147" height="42" as="geometry">
            <mxRectangle width="147" height="42" as="alternateBounds" />
          </mxGeometry>
        </mxCell>
        <mxCell id="TGxnWepOW30YtiNtVAGb-127" value="" style="shape=tableRow;horizontal=0;startSize=0;swimlaneHead=0;swimlaneBody=0;strokeColor=inherit;top=0;left=0;bottom=0;right=0;collapsible=0;dropTarget=0;fillColor=none;points=[[0,0.5],[1,0.5]];portConstraint=eastwest;fontSize=16;" vertex="1" parent="TGxnWepOW30YtiNtVAGb-120">
          <mxGeometry y="72" width="784" height="42" as="geometry" />
        </mxCell>
        <mxCell id="TGxnWepOW30YtiNtVAGb-128" value="" style="shape=partialRectangle;html=1;whiteSpace=wrap;connectable=0;strokeColor=inherit;overflow=hidden;fillColor=none;top=0;left=0;bottom=0;right=0;pointerEvents=1;fontSize=16;" vertex="1" parent="TGxnWepOW30YtiNtVAGb-127">
          <mxGeometry width="238" height="42" as="geometry">
            <mxRectangle width="238" height="42" as="alternateBounds" />
          </mxGeometry>
        </mxCell>
        <mxCell id="TGxnWepOW30YtiNtVAGb-129" value="" style="shape=partialRectangle;html=1;whiteSpace=wrap;connectable=0;strokeColor=inherit;overflow=hidden;fillColor=none;top=0;left=0;bottom=0;right=0;pointerEvents=1;fontSize=16;" vertex="1" parent="TGxnWepOW30YtiNtVAGb-127">
          <mxGeometry x="238" width="106" height="42" as="geometry">
            <mxRectangle width="106" height="42" as="alternateBounds" />
          </mxGeometry>
        </mxCell>
        <mxCell id="TGxnWepOW30YtiNtVAGb-130" value="" style="shape=partialRectangle;html=1;whiteSpace=wrap;connectable=0;strokeColor=inherit;overflow=hidden;fillColor=none;top=0;left=0;bottom=0;right=0;pointerEvents=1;fontSize=16;" vertex="1" parent="TGxnWepOW30YtiNtVAGb-127">
          <mxGeometry x="344" width="146" height="42" as="geometry">
            <mxRectangle width="146" height="42" as="alternateBounds" />
          </mxGeometry>
        </mxCell>
        <mxCell id="TGxnWepOW30YtiNtVAGb-131" style="shape=partialRectangle;html=1;whiteSpace=wrap;connectable=0;strokeColor=inherit;overflow=hidden;fillColor=none;top=0;left=0;bottom=0;right=0;pointerEvents=1;fontSize=16;" vertex="1" parent="TGxnWepOW30YtiNtVAGb-127">
          <mxGeometry x="490" width="147" height="42" as="geometry">
            <mxRectangle width="147" height="42" as="alternateBounds" />
          </mxGeometry>
        </mxCell>
        <mxCell id="TGxnWepOW30YtiNtVAGb-132" style="shape=partialRectangle;html=1;whiteSpace=wrap;connectable=0;strokeColor=inherit;overflow=hidden;fillColor=none;top=0;left=0;bottom=0;right=0;pointerEvents=1;fontSize=16;" vertex="1" parent="TGxnWepOW30YtiNtVAGb-127">
          <mxGeometry x="637" width="147" height="42" as="geometry">
            <mxRectangle width="147" height="42" as="alternateBounds" />
          </mxGeometry>
        </mxCell>
        <mxCell id="TGxnWepOW30YtiNtVAGb-133" value="" style="shape=tableRow;horizontal=0;startSize=0;swimlaneHead=0;swimlaneBody=0;strokeColor=inherit;top=0;left=0;bottom=0;right=0;collapsible=0;dropTarget=0;fillColor=none;points=[[0,0.5],[1,0.5]];portConstraint=eastwest;fontSize=16;" vertex="1" parent="TGxnWepOW30YtiNtVAGb-120">
          <mxGeometry y="114" width="784" height="42" as="geometry" />
        </mxCell>
        <mxCell id="TGxnWepOW30YtiNtVAGb-134" value="" style="shape=partialRectangle;html=1;whiteSpace=wrap;connectable=0;strokeColor=inherit;overflow=hidden;fillColor=none;top=0;left=0;bottom=0;right=0;pointerEvents=1;fontSize=16;" vertex="1" parent="TGxnWepOW30YtiNtVAGb-133">
          <mxGeometry width="238" height="42" as="geometry">
            <mxRectangle width="238" height="42" as="alternateBounds" />
          </mxGeometry>
        </mxCell>
        <mxCell id="TGxnWepOW30YtiNtVAGb-135" value="" style="shape=partialRectangle;html=1;whiteSpace=wrap;connectable=0;strokeColor=inherit;overflow=hidden;fillColor=none;top=0;left=0;bottom=0;right=0;pointerEvents=1;fontSize=16;" vertex="1" parent="TGxnWepOW30YtiNtVAGb-133">
          <mxGeometry x="238" width="106" height="42" as="geometry">
            <mxRectangle width="106" height="42" as="alternateBounds" />
          </mxGeometry>
        </mxCell>
        <mxCell id="TGxnWepOW30YtiNtVAGb-136" value="" style="shape=partialRectangle;html=1;whiteSpace=wrap;connectable=0;strokeColor=inherit;overflow=hidden;fillColor=none;top=0;left=0;bottom=0;right=0;pointerEvents=1;fontSize=16;" vertex="1" parent="TGxnWepOW30YtiNtVAGb-133">
          <mxGeometry x="344" width="146" height="42" as="geometry">
            <mxRectangle width="146" height="42" as="alternateBounds" />
          </mxGeometry>
        </mxCell>
        <mxCell id="TGxnWepOW30YtiNtVAGb-137" style="shape=partialRectangle;html=1;whiteSpace=wrap;connectable=0;strokeColor=inherit;overflow=hidden;fillColor=none;top=0;left=0;bottom=0;right=0;pointerEvents=1;fontSize=16;" vertex="1" parent="TGxnWepOW30YtiNtVAGb-133">
          <mxGeometry x="490" width="147" height="42" as="geometry">
            <mxRectangle width="147" height="42" as="alternateBounds" />
          </mxGeometry>
        </mxCell>
        <mxCell id="TGxnWepOW30YtiNtVAGb-138" style="shape=partialRectangle;html=1;whiteSpace=wrap;connectable=0;strokeColor=inherit;overflow=hidden;fillColor=none;top=0;left=0;bottom=0;right=0;pointerEvents=1;fontSize=16;" vertex="1" parent="TGxnWepOW30YtiNtVAGb-133">
          <mxGeometry x="637" width="147" height="42" as="geometry">
            <mxRectangle width="147" height="42" as="alternateBounds" />
          </mxGeometry>
        </mxCell>
        <mxCell id="TGxnWepOW30YtiNtVAGb-139" style="shape=tableRow;horizontal=0;startSize=0;swimlaneHead=0;swimlaneBody=0;strokeColor=inherit;top=0;left=0;bottom=0;right=0;collapsible=0;dropTarget=0;fillColor=none;points=[[0,0.5],[1,0.5]];portConstraint=eastwest;fontSize=16;" vertex="1" parent="TGxnWepOW30YtiNtVAGb-120">
          <mxGeometry y="156" width="784" height="42" as="geometry" />
        </mxCell>
        <mxCell id="TGxnWepOW30YtiNtVAGb-140" style="shape=partialRectangle;html=1;whiteSpace=wrap;connectable=0;strokeColor=inherit;overflow=hidden;fillColor=none;top=0;left=0;bottom=0;right=0;pointerEvents=1;fontSize=16;" vertex="1" parent="TGxnWepOW30YtiNtVAGb-139">
          <mxGeometry width="238" height="42" as="geometry">
            <mxRectangle width="238" height="42" as="alternateBounds" />
          </mxGeometry>
        </mxCell>
        <mxCell id="TGxnWepOW30YtiNtVAGb-141" style="shape=partialRectangle;html=1;whiteSpace=wrap;connectable=0;strokeColor=inherit;overflow=hidden;fillColor=none;top=0;left=0;bottom=0;right=0;pointerEvents=1;fontSize=16;" vertex="1" parent="TGxnWepOW30YtiNtVAGb-139">
          <mxGeometry x="238" width="106" height="42" as="geometry">
            <mxRectangle width="106" height="42" as="alternateBounds" />
          </mxGeometry>
        </mxCell>
        <mxCell id="TGxnWepOW30YtiNtVAGb-142" style="shape=partialRectangle;html=1;whiteSpace=wrap;connectable=0;strokeColor=inherit;overflow=hidden;fillColor=none;top=0;left=0;bottom=0;right=0;pointerEvents=1;fontSize=16;" vertex="1" parent="TGxnWepOW30YtiNtVAGb-139">
          <mxGeometry x="344" width="146" height="42" as="geometry">
            <mxRectangle width="146" height="42" as="alternateBounds" />
          </mxGeometry>
        </mxCell>
        <mxCell id="TGxnWepOW30YtiNtVAGb-143" style="shape=partialRectangle;html=1;whiteSpace=wrap;connectable=0;strokeColor=inherit;overflow=hidden;fillColor=none;top=0;left=0;bottom=0;right=0;pointerEvents=1;fontSize=16;" vertex="1" parent="TGxnWepOW30YtiNtVAGb-139">
          <mxGeometry x="490" width="147" height="42" as="geometry">
            <mxRectangle width="147" height="42" as="alternateBounds" />
          </mxGeometry>
        </mxCell>
        <mxCell id="TGxnWepOW30YtiNtVAGb-144" style="shape=partialRectangle;html=1;whiteSpace=wrap;connectable=0;strokeColor=inherit;overflow=hidden;fillColor=none;top=0;left=0;bottom=0;right=0;pointerEvents=1;fontSize=16;" vertex="1" parent="TGxnWepOW30YtiNtVAGb-139">
          <mxGeometry x="637" width="147" height="42" as="geometry">
            <mxRectangle width="147" height="42" as="alternateBounds" />
          </mxGeometry>
        </mxCell>
        <mxCell id="TGxnWepOW30YtiNtVAGb-145" style="shape=tableRow;horizontal=0;startSize=0;swimlaneHead=0;swimlaneBody=0;strokeColor=inherit;top=0;left=0;bottom=0;right=0;collapsible=0;dropTarget=0;fillColor=none;points=[[0,0.5],[1,0.5]];portConstraint=eastwest;fontSize=16;" vertex="1" parent="TGxnWepOW30YtiNtVAGb-120">
          <mxGeometry y="198" width="784" height="42" as="geometry" />
        </mxCell>
        <mxCell id="TGxnWepOW30YtiNtVAGb-146" style="shape=partialRectangle;html=1;whiteSpace=wrap;connectable=0;strokeColor=inherit;overflow=hidden;fillColor=none;top=0;left=0;bottom=0;right=0;pointerEvents=1;fontSize=16;" vertex="1" parent="TGxnWepOW30YtiNtVAGb-145">
          <mxGeometry width="238" height="42" as="geometry">
            <mxRectangle width="238" height="42" as="alternateBounds" />
          </mxGeometry>
        </mxCell>
        <mxCell id="TGxnWepOW30YtiNtVAGb-147" style="shape=partialRectangle;html=1;whiteSpace=wrap;connectable=0;strokeColor=inherit;overflow=hidden;fillColor=none;top=0;left=0;bottom=0;right=0;pointerEvents=1;fontSize=16;" vertex="1" parent="TGxnWepOW30YtiNtVAGb-145">
          <mxGeometry x="238" width="106" height="42" as="geometry">
            <mxRectangle width="106" height="42" as="alternateBounds" />
          </mxGeometry>
        </mxCell>
        <mxCell id="TGxnWepOW30YtiNtVAGb-148" style="shape=partialRectangle;html=1;whiteSpace=wrap;connectable=0;strokeColor=inherit;overflow=hidden;fillColor=none;top=0;left=0;bottom=0;right=0;pointerEvents=1;fontSize=16;" vertex="1" parent="TGxnWepOW30YtiNtVAGb-145">
          <mxGeometry x="344" width="146" height="42" as="geometry">
            <mxRectangle width="146" height="42" as="alternateBounds" />
          </mxGeometry>
        </mxCell>
        <mxCell id="TGxnWepOW30YtiNtVAGb-149" style="shape=partialRectangle;html=1;whiteSpace=wrap;connectable=0;strokeColor=inherit;overflow=hidden;fillColor=none;top=0;left=0;bottom=0;right=0;pointerEvents=1;fontSize=16;" vertex="1" parent="TGxnWepOW30YtiNtVAGb-145">
          <mxGeometry x="490" width="147" height="42" as="geometry">
            <mxRectangle width="147" height="42" as="alternateBounds" />
          </mxGeometry>
        </mxCell>
        <mxCell id="TGxnWepOW30YtiNtVAGb-150" style="shape=partialRectangle;html=1;whiteSpace=wrap;connectable=0;strokeColor=inherit;overflow=hidden;fillColor=none;top=0;left=0;bottom=0;right=0;pointerEvents=1;fontSize=16;" vertex="1" parent="TGxnWepOW30YtiNtVAGb-145">
          <mxGeometry x="637" width="147" height="42" as="geometry">
            <mxRectangle width="147" height="42" as="alternateBounds" />
          </mxGeometry>
        </mxCell>
        <mxCell id="TGxnWepOW30YtiNtVAGb-151" style="shape=tableRow;horizontal=0;startSize=0;swimlaneHead=0;swimlaneBody=0;strokeColor=inherit;top=0;left=0;bottom=0;right=0;collapsible=0;dropTarget=0;fillColor=none;points=[[0,0.5],[1,0.5]];portConstraint=eastwest;fontSize=16;" vertex="1" parent="TGxnWepOW30YtiNtVAGb-120">
          <mxGeometry y="240" width="784" height="42" as="geometry" />
        </mxCell>
        <mxCell id="TGxnWepOW30YtiNtVAGb-152" style="shape=partialRectangle;html=1;whiteSpace=wrap;connectable=0;strokeColor=inherit;overflow=hidden;fillColor=none;top=0;left=0;bottom=0;right=0;pointerEvents=1;fontSize=16;" vertex="1" parent="TGxnWepOW30YtiNtVAGb-151">
          <mxGeometry width="238" height="42" as="geometry">
            <mxRectangle width="238" height="42" as="alternateBounds" />
          </mxGeometry>
        </mxCell>
        <mxCell id="TGxnWepOW30YtiNtVAGb-153" style="shape=partialRectangle;html=1;whiteSpace=wrap;connectable=0;strokeColor=inherit;overflow=hidden;fillColor=none;top=0;left=0;bottom=0;right=0;pointerEvents=1;fontSize=16;" vertex="1" parent="TGxnWepOW30YtiNtVAGb-151">
          <mxGeometry x="238" width="106" height="42" as="geometry">
            <mxRectangle width="106" height="42" as="alternateBounds" />
          </mxGeometry>
        </mxCell>
        <mxCell id="TGxnWepOW30YtiNtVAGb-154" style="shape=partialRectangle;html=1;whiteSpace=wrap;connectable=0;strokeColor=inherit;overflow=hidden;fillColor=none;top=0;left=0;bottom=0;right=0;pointerEvents=1;fontSize=16;" vertex="1" parent="TGxnWepOW30YtiNtVAGb-151">
          <mxGeometry x="344" width="146" height="42" as="geometry">
            <mxRectangle width="146" height="42" as="alternateBounds" />
          </mxGeometry>
        </mxCell>
        <mxCell id="TGxnWepOW30YtiNtVAGb-155" style="shape=partialRectangle;html=1;whiteSpace=wrap;connectable=0;strokeColor=inherit;overflow=hidden;fillColor=none;top=0;left=0;bottom=0;right=0;pointerEvents=1;fontSize=16;" vertex="1" parent="TGxnWepOW30YtiNtVAGb-151">
          <mxGeometry x="490" width="147" height="42" as="geometry">
            <mxRectangle width="147" height="42" as="alternateBounds" />
          </mxGeometry>
        </mxCell>
        <mxCell id="TGxnWepOW30YtiNtVAGb-156" style="shape=partialRectangle;html=1;whiteSpace=wrap;connectable=0;strokeColor=inherit;overflow=hidden;fillColor=none;top=0;left=0;bottom=0;right=0;pointerEvents=1;fontSize=16;" vertex="1" parent="TGxnWepOW30YtiNtVAGb-151">
          <mxGeometry x="637" width="147" height="42" as="geometry">
            <mxRectangle width="147" height="42" as="alternateBounds" />
          </mxGeometry>
        </mxCell>
        <mxCell id="wV4791-nTEAypTHNNcmD-0" value="Dept List" style="shape=table;startSize=30;container=1;collapsible=0;childLayout=tableLayout;strokeColor=default;fontSize=16;sketch=1;curveFitting=1;jiggle=2;fontFamily=Architects Daughter;" vertex="1" parent="TGxnWepOW30YtiNtVAGb-2">
          <mxGeometry x="35" y="46" width="651" height="230" as="geometry" />
        </mxCell>
        <mxCell id="wV4791-nTEAypTHNNcmD-1" value="" style="shape=tableRow;horizontal=0;startSize=0;swimlaneHead=0;swimlaneBody=0;strokeColor=inherit;top=0;left=0;bottom=0;right=0;collapsible=0;dropTarget=0;fillColor=none;points=[[0,0.5],[1,0.5]];portConstraint=eastwest;fontSize=16;" vertex="1" parent="wV4791-nTEAypTHNNcmD-0">
          <mxGeometry y="30" width="651" height="40" as="geometry" />
        </mxCell>
        <mxCell id="wV4791-nTEAypTHNNcmD-2" value="Department" style="shape=partialRectangle;html=1;whiteSpace=wrap;connectable=0;strokeColor=inherit;overflow=hidden;fillColor=none;top=0;left=0;bottom=0;right=0;pointerEvents=1;fontSize=16;" vertex="1" parent="wV4791-nTEAypTHNNcmD-1">
          <mxGeometry width="320" height="40" as="geometry">
            <mxRectangle width="320" height="40" as="alternateBounds" />
          </mxGeometry>
        </mxCell>
        <mxCell id="wV4791-nTEAypTHNNcmD-3" value="User Count" style="shape=partialRectangle;html=1;whiteSpace=wrap;connectable=0;strokeColor=inherit;overflow=hidden;fillColor=none;top=0;left=0;bottom=0;right=0;pointerEvents=1;fontSize=16;" vertex="1" parent="wV4791-nTEAypTHNNcmD-1">
          <mxGeometry x="320" width="174" height="40" as="geometry">
            <mxRectangle width="174" height="40" as="alternateBounds" />
          </mxGeometry>
        </mxCell>
        <mxCell id="wV4791-nTEAypTHNNcmD-5" value="Last Accessed" style="shape=partialRectangle;html=1;whiteSpace=wrap;connectable=0;strokeColor=inherit;overflow=hidden;fillColor=none;top=0;left=0;bottom=0;right=0;pointerEvents=1;fontSize=16;" vertex="1" parent="wV4791-nTEAypTHNNcmD-1">
          <mxGeometry x="494" width="157" height="40" as="geometry">
            <mxRectangle width="157" height="40" as="alternateBounds" />
          </mxGeometry>
        </mxCell>
        <mxCell id="wV4791-nTEAypTHNNcmD-26" style="shape=tableRow;horizontal=0;startSize=0;swimlaneHead=0;swimlaneBody=0;strokeColor=inherit;top=0;left=0;bottom=0;right=0;collapsible=0;dropTarget=0;fillColor=none;points=[[0,0.5],[1,0.5]];portConstraint=eastwest;fontSize=16;" vertex="1" parent="wV4791-nTEAypTHNNcmD-0">
          <mxGeometry y="70" width="651" height="40" as="geometry" />
        </mxCell>
        <mxCell id="wV4791-nTEAypTHNNcmD-27" style="shape=partialRectangle;html=1;whiteSpace=wrap;connectable=0;strokeColor=inherit;overflow=hidden;fillColor=none;top=0;left=0;bottom=0;right=0;pointerEvents=1;fontSize=16;" vertex="1" parent="wV4791-nTEAypTHNNcmD-26">
          <mxGeometry width="320" height="40" as="geometry">
            <mxRectangle width="320" height="40" as="alternateBounds" />
          </mxGeometry>
        </mxCell>
        <mxCell id="wV4791-nTEAypTHNNcmD-28" style="shape=partialRectangle;html=1;whiteSpace=wrap;connectable=0;strokeColor=inherit;overflow=hidden;fillColor=none;top=0;left=0;bottom=0;right=0;pointerEvents=1;fontSize=16;" vertex="1" parent="wV4791-nTEAypTHNNcmD-26">
          <mxGeometry x="320" width="174" height="40" as="geometry">
            <mxRectangle width="174" height="40" as="alternateBounds" />
          </mxGeometry>
        </mxCell>
        <mxCell id="wV4791-nTEAypTHNNcmD-30" style="shape=partialRectangle;html=1;whiteSpace=wrap;connectable=0;strokeColor=inherit;overflow=hidden;fillColor=none;top=0;left=0;bottom=0;right=0;pointerEvents=1;fontSize=16;" vertex="1" parent="wV4791-nTEAypTHNNcmD-26">
          <mxGeometry x="494" width="157" height="40" as="geometry">
            <mxRectangle width="157" height="40" as="alternateBounds" />
          </mxGeometry>
        </mxCell>
        <mxCell id="wV4791-nTEAypTHNNcmD-31" style="shape=tableRow;horizontal=0;startSize=0;swimlaneHead=0;swimlaneBody=0;strokeColor=inherit;top=0;left=0;bottom=0;right=0;collapsible=0;dropTarget=0;fillColor=none;points=[[0,0.5],[1,0.5]];portConstraint=eastwest;fontSize=16;" vertex="1" parent="wV4791-nTEAypTHNNcmD-0">
          <mxGeometry y="110" width="651" height="40" as="geometry" />
        </mxCell>
        <mxCell id="wV4791-nTEAypTHNNcmD-32" style="shape=partialRectangle;html=1;whiteSpace=wrap;connectable=0;strokeColor=inherit;overflow=hidden;fillColor=none;top=0;left=0;bottom=0;right=0;pointerEvents=1;fontSize=16;" vertex="1" parent="wV4791-nTEAypTHNNcmD-31">
          <mxGeometry width="320" height="40" as="geometry">
            <mxRectangle width="320" height="40" as="alternateBounds" />
          </mxGeometry>
        </mxCell>
        <mxCell id="wV4791-nTEAypTHNNcmD-33" style="shape=partialRectangle;html=1;whiteSpace=wrap;connectable=0;strokeColor=inherit;overflow=hidden;fillColor=none;top=0;left=0;bottom=0;right=0;pointerEvents=1;fontSize=16;" vertex="1" parent="wV4791-nTEAypTHNNcmD-31">
          <mxGeometry x="320" width="174" height="40" as="geometry">
            <mxRectangle width="174" height="40" as="alternateBounds" />
          </mxGeometry>
        </mxCell>
        <mxCell id="wV4791-nTEAypTHNNcmD-35" style="shape=partialRectangle;html=1;whiteSpace=wrap;connectable=0;strokeColor=inherit;overflow=hidden;fillColor=none;top=0;left=0;bottom=0;right=0;pointerEvents=1;fontSize=16;" vertex="1" parent="wV4791-nTEAypTHNNcmD-31">
          <mxGeometry x="494" width="157" height="40" as="geometry">
            <mxRectangle width="157" height="40" as="alternateBounds" />
          </mxGeometry>
        </mxCell>
        <mxCell id="wV4791-nTEAypTHNNcmD-36" style="shape=tableRow;horizontal=0;startSize=0;swimlaneHead=0;swimlaneBody=0;strokeColor=inherit;top=0;left=0;bottom=0;right=0;collapsible=0;dropTarget=0;fillColor=none;points=[[0,0.5],[1,0.5]];portConstraint=eastwest;fontSize=16;" vertex="1" parent="wV4791-nTEAypTHNNcmD-0">
          <mxGeometry y="150" width="651" height="40" as="geometry" />
        </mxCell>
        <mxCell id="wV4791-nTEAypTHNNcmD-37" style="shape=partialRectangle;html=1;whiteSpace=wrap;connectable=0;strokeColor=inherit;overflow=hidden;fillColor=none;top=0;left=0;bottom=0;right=0;pointerEvents=1;fontSize=16;" vertex="1" parent="wV4791-nTEAypTHNNcmD-36">
          <mxGeometry width="320" height="40" as="geometry">
            <mxRectangle width="320" height="40" as="alternateBounds" />
          </mxGeometry>
        </mxCell>
        <mxCell id="wV4791-nTEAypTHNNcmD-38" style="shape=partialRectangle;html=1;whiteSpace=wrap;connectable=0;strokeColor=inherit;overflow=hidden;fillColor=none;top=0;left=0;bottom=0;right=0;pointerEvents=1;fontSize=16;" vertex="1" parent="wV4791-nTEAypTHNNcmD-36">
          <mxGeometry x="320" width="174" height="40" as="geometry">
            <mxRectangle width="174" height="40" as="alternateBounds" />
          </mxGeometry>
        </mxCell>
        <mxCell id="wV4791-nTEAypTHNNcmD-40" style="shape=partialRectangle;html=1;whiteSpace=wrap;connectable=0;strokeColor=inherit;overflow=hidden;fillColor=none;top=0;left=0;bottom=0;right=0;pointerEvents=1;fontSize=16;" vertex="1" parent="wV4791-nTEAypTHNNcmD-36">
          <mxGeometry x="494" width="157" height="40" as="geometry">
            <mxRectangle width="157" height="40" as="alternateBounds" />
          </mxGeometry>
        </mxCell>
        <mxCell id="wV4791-nTEAypTHNNcmD-41" style="shape=tableRow;horizontal=0;startSize=0;swimlaneHead=0;swimlaneBody=0;strokeColor=inherit;top=0;left=0;bottom=0;right=0;collapsible=0;dropTarget=0;fillColor=none;points=[[0,0.5],[1,0.5]];portConstraint=eastwest;fontSize=16;" vertex="1" parent="wV4791-nTEAypTHNNcmD-0">
          <mxGeometry y="190" width="651" height="40" as="geometry" />
        </mxCell>
        <mxCell id="wV4791-nTEAypTHNNcmD-42" style="shape=partialRectangle;html=1;whiteSpace=wrap;connectable=0;strokeColor=inherit;overflow=hidden;fillColor=none;top=0;left=0;bottom=0;right=0;pointerEvents=1;fontSize=16;" vertex="1" parent="wV4791-nTEAypTHNNcmD-41">
          <mxGeometry width="320" height="40" as="geometry">
            <mxRectangle width="320" height="40" as="alternateBounds" />
          </mxGeometry>
        </mxCell>
        <mxCell id="wV4791-nTEAypTHNNcmD-43" style="shape=partialRectangle;html=1;whiteSpace=wrap;connectable=0;strokeColor=inherit;overflow=hidden;fillColor=none;top=0;left=0;bottom=0;right=0;pointerEvents=1;fontSize=16;" vertex="1" parent="wV4791-nTEAypTHNNcmD-41">
          <mxGeometry x="320" width="174" height="40" as="geometry">
            <mxRectangle width="174" height="40" as="alternateBounds" />
          </mxGeometry>
        </mxCell>
        <mxCell id="wV4791-nTEAypTHNNcmD-45" style="shape=partialRectangle;html=1;whiteSpace=wrap;connectable=0;strokeColor=inherit;overflow=hidden;fillColor=none;top=0;left=0;bottom=0;right=0;pointerEvents=1;fontSize=16;" vertex="1" parent="wV4791-nTEAypTHNNcmD-41">
          <mxGeometry x="494" width="157" height="40" as="geometry">
            <mxRectangle width="157" height="40" as="alternateBounds" />
          </mxGeometry>
        </mxCell>
      </root>
    </mxGraphModel>
  </diagram>
</mxfile>
